<svg width="28" height="21" viewBox="0 0 28 21" fill="none" xmlns="http://www.w3.org/2000/svg">
<mask id="path-1-inside-1" fill="white">
<path fill-rule="evenodd" clip-rule="evenodd" d="M11.4439 19.9048C11.3697 20.0634 11.2725 20.2131 11.1521 20.3485C10.4956 21.0866 9.39802 21.1178 8.70065 20.4182L0.545491 12.2368C-0.151881 11.5372 -0.185002 10.3717 0.471512 9.63361C1.12803 8.89552 2.22557 8.86432 2.92294 9.56394L9.84949 16.5128L24.891 0.538461C25.567 -0.179488 26.6631 -0.179487 27.3391 0.538462C28.0152 1.25641 28.0152 2.42044 27.3391 3.13839L11.8582 19.5793C11.7328 19.7125 11.5929 19.821 11.4439 19.9048Z"/>
</mask>
<path fill-rule="evenodd" clip-rule="evenodd" d="M11.4439 19.9048C11.3697 20.0634 11.2725 20.2131 11.1521 20.3485C10.4956 21.0866 9.39802 21.1178 8.70065 20.4182L0.545491 12.2368C-0.151881 11.5372 -0.185002 10.3717 0.471512 9.63361C1.12803 8.89552 2.22557 8.86432 2.92294 9.56394L9.84949 16.5128L24.891 0.538461C25.567 -0.179488 26.6631 -0.179487 27.3391 0.538462C28.0152 1.25641 28.0152 2.42044 27.3391 3.13839L11.8582 19.5793C11.7328 19.7125 11.5929 19.821 11.4439 19.9048Z" fill="white"/>
<path d="M11.4439 19.9048L11.3458 19.7305L11.2899 19.7619L11.2627 19.8201L11.4439 19.9048ZM11.1521 20.3485L11.0026 20.2156L11.1521 20.3485ZM8.70065 20.4182L8.559 20.5594L8.70065 20.4182ZM0.545491 12.2368L0.403843 12.378H0.403843L0.545491 12.2368ZM0.471512 9.63361L0.322074 9.50068H0.322074L0.471512 9.63361ZM2.92294 9.56394L3.06459 9.42274L2.92294 9.56394ZM9.84949 16.5128L9.70784 16.6539L9.85358 16.8002L9.9951 16.6499L9.84949 16.5128ZM24.891 0.538461L24.7454 0.401355L24.891 0.538461ZM27.3391 0.538462L27.1935 0.675568L27.3391 0.538462ZM27.3391 3.13839L27.1935 3.00128L27.3391 3.13839ZM11.8582 19.5793L11.7126 19.4422L11.8582 19.5793ZM11.2627 19.8201C11.1965 19.9617 11.1098 20.0951 11.0026 20.2156L11.3015 20.4814C11.4351 20.3312 11.5429 20.1651 11.625 19.9895L11.2627 19.8201ZM11.0026 20.2156C10.4227 20.8676 9.45836 20.895 8.8423 20.277L8.559 20.5594C9.33769 21.3406 10.5685 21.3056 11.3015 20.4814L11.0026 20.2156ZM8.8423 20.277L0.687139 12.0956L0.403843 12.378L8.559 20.5594L8.8423 20.277ZM0.687139 12.0956C0.0644566 11.4709 0.0347493 10.4256 0.62095 9.76653L0.322074 9.50068C-0.404754 10.3178 -0.368219 11.6034 0.403843 12.378L0.687139 12.0956ZM0.62095 9.76653C1.20092 9.1145 2.16523 9.08709 2.78129 9.70513L3.06459 9.42274C2.28591 8.64156 1.05513 8.67654 0.322074 9.50068L0.62095 9.76653ZM2.78129 9.70513L9.70784 16.6539L9.99114 16.3716L3.06459 9.42274L2.78129 9.70513ZM9.9951 16.6499L25.0366 0.675568L24.7454 0.401355L9.70388 16.3756L9.9951 16.6499ZM25.0366 0.675568C25.6337 0.0414771 26.5965 0.0414775 27.1935 0.675568L27.4847 0.401356C26.7298 -0.400451 25.5004 -0.400452 24.7454 0.401355L25.0366 0.675568ZM27.1935 0.675568C27.797 1.3165 27.797 2.36035 27.1935 3.00128L27.4847 3.27549C28.2333 2.48052 28.2333 1.19632 27.4847 0.401356L27.1935 0.675568ZM27.1935 3.00128L11.7126 19.4422L12.0039 19.7164L27.4847 3.27549L27.1935 3.00128ZM11.7126 19.4422C11.601 19.5607 11.4771 19.6567 11.3458 19.7305L11.5419 20.0791C11.7087 19.9854 11.8646 19.8643 12.0039 19.7164L11.7126 19.4422Z" fill="black" mask="url(#path-1-inside-1)"/>
</svg>
