<svg width="604" height="208" viewBox="0 0 604 208" fill="none" xmlns="http://www.w3.org/2000/svg">
<path d="M552.555 120.286H50.7007V8.75277C50.7007 3.89975 54.6005 0 59.4535 0H543.716C548.569 0 552.469 3.89975 552.469 8.75277V120.286H552.555Z" fill="url(#paint0_linear)"/>
<path d="M105.037 47.1437C108.59 47.4037 110.497 49.3102 110.497 49.3102V47.1437V44.9772C110.497 44.9772 108.59 46.9704 105.037 47.1437Z" fill="#D9A939"/>
<path d="M112.837 39.3441C112.577 42.8972 110.67 44.8038 110.67 44.8038H112.837H115.003C115.09 44.8038 113.097 42.8106 112.837 39.3441Z" fill="#D9A939"/>
<path d="M120.723 47.1437C117.17 46.8837 115.263 44.9772 115.263 44.9772V47.1437V49.3102C115.177 49.3102 117.17 47.4037 120.723 47.1437Z" fill="#D9A939"/>
<path d="M112.837 55.0297C113.097 51.4766 115.003 49.5701 115.003 49.5701H112.837H110.67C110.67 49.5701 112.663 51.4766 112.837 55.0297Z" fill="#D9A939"/>
<path d="M112.837 50.3501C114.608 50.3501 116.043 48.9145 116.043 47.1436C116.043 45.3727 114.608 43.9371 112.837 43.9371C111.066 43.9371 109.63 45.3727 109.63 47.1436C109.63 48.9145 111.066 50.3501 112.837 50.3501Z" fill="#B4812C"/>
<path d="M169.513 47.1437C173.066 47.4037 174.973 49.3102 174.973 49.3102V47.1437V44.9772C174.973 44.9772 172.98 46.9704 169.513 47.1437Z" fill="#D9A939"/>
<path d="M177.313 39.3441C177.053 42.8972 175.146 44.8038 175.146 44.8038H177.313H179.479C179.479 44.8038 177.573 42.8106 177.313 39.3441Z" fill="#D9A939"/>
<path d="M185.112 47.1437C181.559 46.8837 179.652 44.9772 179.652 44.9772V47.1437V49.3102C179.652 49.3102 181.646 47.4037 185.112 47.1437Z" fill="#D9A939"/>
<path d="M177.313 55.0297C177.573 51.4766 179.479 49.5701 179.479 49.5701H177.313H175.146C175.146 49.5701 177.053 51.4766 177.313 55.0297Z" fill="#D9A939"/>
<path d="M177.313 50.3501C179.084 50.3501 180.519 48.9145 180.519 47.1436C180.519 45.3727 179.084 43.9371 177.313 43.9371C175.542 43.9371 174.106 45.3727 174.106 47.1436C174.106 48.9145 175.542 50.3501 177.313 50.3501Z" fill="#B4812C"/>
<path d="M230.263 47.1437C233.816 47.4037 235.722 49.3102 235.722 49.3102V47.1437V44.9772C235.722 44.9772 233.816 46.9704 230.263 47.1437Z" fill="#D9A939"/>
<path d="M238.062 39.3441C237.802 42.8972 235.896 44.8038 235.896 44.8038H238.062H240.229C240.315 44.8038 238.322 42.8106 238.062 39.3441Z" fill="#D9A939"/>
<path d="M245.948 47.1437C242.395 46.8837 240.489 44.9772 240.489 44.9772V47.1437V49.3102C240.402 49.3102 242.395 47.4037 245.948 47.1437Z" fill="#D9A939"/>
<path d="M238.062 55.0297C238.322 51.4766 240.229 49.5701 240.229 49.5701H238.062H235.896C235.896 49.5701 237.889 51.4766 238.062 55.0297Z" fill="#D9A939"/>
<path d="M238.062 50.3501C239.833 50.3501 241.269 48.9145 241.269 47.1436C241.269 45.3727 239.833 43.9371 238.062 43.9371C236.291 43.9371 234.856 45.3727 234.856 47.1436C234.856 48.9145 236.291 50.3501 238.062 50.3501Z" fill="#B4812C"/>
<path d="M294.738 47.1437C298.292 47.4037 300.198 49.3102 300.198 49.3102V47.1437V44.9772C300.198 44.9772 298.205 46.9704 294.738 47.1437Z" fill="#D9A939"/>
<path d="M302.538 39.3441C302.278 42.8972 300.371 44.8038 300.371 44.8038H302.538H304.704C304.704 44.8038 302.798 42.8106 302.538 39.3441Z" fill="#D9A939"/>
<path d="M310.337 47.1437C306.784 46.8837 304.878 44.9772 304.878 44.9772V47.1437V49.3102C304.878 49.3102 306.871 47.4037 310.337 47.1437Z" fill="#D9A939"/>
<path d="M302.538 55.0297C302.798 51.4766 304.704 49.5701 304.704 49.5701H302.538H300.371C300.371 49.5701 302.278 51.4766 302.538 55.0297Z" fill="#D9A939"/>
<path d="M302.538 50.3501C304.309 50.3501 305.744 48.9145 305.744 47.1436C305.744 45.3727 304.309 43.9371 302.538 43.9371C300.767 43.9371 299.331 45.3727 299.331 47.1436C299.331 48.9145 300.767 50.3501 302.538 50.3501Z" fill="#B4812C"/>
<path d="M356.961 47.1437C360.514 47.4037 362.421 49.3102 362.421 49.3102V47.1437V44.9772C362.421 44.9772 360.514 46.9704 356.961 47.1437Z" fill="#D9A939"/>
<path d="M364.761 39.3441C364.501 42.8972 362.594 44.8038 362.594 44.8038H364.761H366.927C367.014 44.8038 365.021 42.8106 364.761 39.3441Z" fill="#D9A939"/>
<path d="M372.647 47.1437C369.094 46.8837 367.187 44.9772 367.187 44.9772V47.1437V49.3102C367.187 49.3102 369.094 47.4037 372.647 47.1437Z" fill="#D9A939"/>
<path d="M364.761 55.0297C365.021 51.4766 366.927 49.5701 366.927 49.5701H364.761H362.594C362.594 49.5701 364.587 51.4766 364.761 55.0297Z" fill="#D9A939"/>
<path d="M364.761 50.3501C366.531 50.3501 367.967 48.9145 367.967 47.1436C367.967 45.3727 366.531 43.9371 364.761 43.9371C362.99 43.9371 361.554 45.3727 361.554 47.1436C361.554 48.9145 362.99 50.3501 364.761 50.3501Z" fill="#B4812C"/>
<path d="M417.797 47.1437C421.35 47.4037 423.257 49.3102 423.257 49.3102V47.1437V44.9772C423.257 44.9772 421.264 46.9704 417.797 47.1437Z" fill="#D9A939"/>
<path d="M425.597 39.3441C425.337 42.8972 423.43 44.8038 423.43 44.8038H425.597H427.763C427.763 44.8038 425.77 42.8106 425.597 39.3441Z" fill="#D9A939"/>
<path d="M433.396 47.1437C429.843 46.8837 427.937 44.9772 427.937 44.9772V47.1437V49.3102C427.937 49.3102 429.843 47.4037 433.396 47.1437Z" fill="#D9A939"/>
<path d="M425.597 55.0297C425.857 51.4766 427.763 49.5701 427.763 49.5701H425.597H423.43C423.43 49.5701 425.337 51.4766 425.597 55.0297Z" fill="#D9A939"/>
<path d="M425.597 50.3501C427.368 50.3501 428.803 48.9145 428.803 47.1436C428.803 45.3727 427.368 43.9371 425.597 43.9371C423.826 43.9371 422.39 45.3727 422.39 47.1436C422.39 48.9145 423.826 50.3501 425.597 50.3501Z" fill="#B4812C"/>
<path d="M482.186 47.1437C485.74 47.4037 487.646 49.3102 487.646 49.3102V47.1437V44.9772C487.646 44.9772 485.74 46.9704 482.186 47.1437Z" fill="#D9A939"/>
<path d="M489.986 39.3441C489.726 42.8972 487.819 44.8038 487.819 44.8038H489.986H492.152C492.239 44.8038 490.246 42.8106 489.986 39.3441Z" fill="#D9A939"/>
<path d="M497.872 47.1437C494.319 46.8837 492.412 44.9772 492.412 44.9772V47.1437V49.3102C492.412 49.3102 494.319 47.4037 497.872 47.1437Z" fill="#D9A939"/>
<path d="M489.986 55.0297C490.246 51.4766 492.152 49.5701 492.152 49.5701H489.986H487.819C487.819 49.5701 489.813 51.4766 489.986 55.0297Z" fill="#D9A939"/>
<path d="M489.986 50.3501C491.757 50.3501 493.192 48.9145 493.192 47.1436C493.192 45.3727 491.757 43.9371 489.986 43.9371C488.215 43.9371 486.779 45.3727 486.779 47.1436C486.779 48.9145 488.215 50.3501 489.986 50.3501Z" fill="#B4812C"/>
<path d="M572.834 86.4878H35.0151V138.571H572.834V86.4878Z" fill="#B4812C"/>
<path d="M24.7024 46.0171L52.7806 50.4368C52.7806 50.4368 60.5801 51.2168 61.88 60.2295C63.18 69.2423 64.3932 81.2882 64.3932 81.2882L42.8146 107.027L24.7024 46.0171Z" fill="url(#paint1_linear)"/>
<path d="M55.0338 163.01L43.7679 202.527C42.9879 205.213 45.0678 207.9 47.8409 207.9C49.5742 207.9 51.0474 206.86 51.7407 205.387L70.1995 163.01H55.0338V163.01Z" fill="#131011"/>
<path d="M73.7526 163.01L64.3065 196.201C63.6999 198.454 65.3465 200.707 67.773 200.707C69.1595 200.707 70.4595 199.84 71.0661 198.541L86.5784 163.01H73.7526V163.01Z" fill="#131011"/>
<path d="M44.4611 86.4878H301.585V113.266C301.585 117.166 298.378 120.286 294.478 120.286H53.0406C50.0941 120.286 47.4076 118.726 45.9344 116.213C43.0746 111.446 40.1281 102.087 44.4611 86.4878Z" fill="url(#paint2_linear)"/>
<path d="M44.4611 86.4877C44.4611 86.4877 52.3473 79.1215 71.586 77.9083C90.8248 76.695 267.354 77.5616 279.659 77.9083C291.965 78.2549 301.585 86.4877 301.585 86.4877H44.4611Z" fill="url(#paint3_linear)"/>
<path d="M578.554 46.0171L550.475 50.4368C550.475 50.4368 542.676 51.2168 541.376 60.2295C540.163 69.2423 538.863 81.2882 538.863 81.2882L560.441 107.027L578.554 46.0171Z" fill="url(#paint4_linear)"/>
<path d="M597.879 46.0171H578.553C576.214 46.0171 574.134 47.6637 573.614 49.9168L557.842 119.766C557.322 122.192 555.155 123.839 552.728 123.839H301.585H50.5274C48.1009 123.839 45.9344 122.106 45.4144 119.766L29.6421 49.9168C29.1221 47.577 27.0423 46.0171 24.7024 46.0171H5.37698C1.9972 46.0171 -0.515973 49.0502 0.0906545 52.3434L13.4365 123.925L16.0363 137.878C17.6829 146.717 25.3957 153.13 34.4085 153.13H301.585H568.674C577.687 153.13 585.4 146.717 587.046 137.878L589.646 123.925L602.992 52.3434C603.685 49.0502 601.172 46.0171 597.879 46.0171Z" fill="url(#paint5_linear)"/>
<path d="M560.355 159.456C559.748 157.55 558.708 155.21 556.542 153.13H301.585H46.7143C44.5478 155.21 43.5079 157.55 42.9012 159.456C42.3813 161.19 43.6812 163.01 45.5011 163.01H301.585H557.668C559.575 163.01 560.875 161.19 560.355 159.456Z" fill="#131011"/>
<path d="M548.135 163.01L559.401 202.527C560.181 205.213 558.101 207.9 555.328 207.9C553.595 207.9 552.122 206.86 551.429 205.387L532.97 163.01H548.135Z" fill="#131011"/>
<path d="M529.503 163.01L538.949 196.201C539.556 198.454 537.909 200.707 535.483 200.707C534.096 200.707 532.796 199.84 532.19 198.541L516.677 163.01H529.503V163.01Z" fill="#131011"/>
<path d="M558.795 86.4878H302.538V113.266C302.538 117.166 305.744 120.286 309.644 120.286H550.215C553.162 120.286 555.848 118.726 557.322 116.213C560.095 111.446 563.041 102.087 558.795 86.4878Z" fill="url(#paint6_linear)"/>
<path d="M558.795 86.4877C558.795 86.4877 550.909 79.1215 531.757 77.9083C512.604 76.695 336.682 77.5616 324.463 77.9083C312.244 78.2549 302.625 86.4877 302.625 86.4877H558.795Z" fill="url(#paint7_linear)"/>
<defs>
<linearGradient id="paint0_linear" x1="50.6897" y1="60.1476" x2="552.519" y2="60.1476" gradientUnits="userSpaceOnUse">
<stop stop-color="#ECBF47"/>
<stop offset="1" stop-color="#D1AA3E"/>
</linearGradient>
<linearGradient id="paint1_linear" x1="24.6763" y1="76.4611" x2="64.2992" y2="76.4611" gradientUnits="userSpaceOnUse">
<stop stop-color="#D1AA3E"/>
<stop offset="1" stop-color="#ECBF47"/>
</linearGradient>
<linearGradient id="paint2_linear" x1="171.942" y1="120.295" x2="171.942" y2="86.5062" gradientUnits="userSpaceOnUse">
<stop stop-color="#D1AA3E"/>
<stop offset="1" stop-color="#ECBF47"/>
</linearGradient>
<linearGradient id="paint3_linear" x1="44.4521" y1="81.888" x2="301.604" y2="81.888" gradientUnits="userSpaceOnUse">
<stop stop-color="#EDBF46"/>
<stop offset="1" stop-color="#FFD26B"/>
</linearGradient>
<linearGradient id="paint4_linear" x1="578.533" y1="76.4594" x2="538.91" y2="76.4594" gradientUnits="userSpaceOnUse">
<stop stop-color="#D1AA3E"/>
<stop offset="1" stop-color="#ECBF47"/>
</linearGradient>
<linearGradient id="paint5_linear" x1="0.00399342" y1="99.5673" x2="603.205" y2="99.5673" gradientUnits="userSpaceOnUse">
<stop stop-color="#ECBF47"/>
<stop offset="1" stop-color="#D1AA3E"/>
</linearGradient>
<linearGradient id="paint6_linear" x1="431.736" y1="120.294" x2="431.736" y2="86.5046" gradientUnits="userSpaceOnUse">
<stop stop-color="#D1AA3E"/>
<stop offset="1" stop-color="#ECBF47"/>
</linearGradient>
<linearGradient id="paint7_linear" x1="558.765" y1="81.8864" x2="302.543" y2="81.8864" gradientUnits="userSpaceOnUse">
<stop stop-color="#EDBF46"/>
<stop offset="1" stop-color="#FFD26B"/>
</linearGradient>
</defs>
</svg>
