<svg width="32" height="32" viewBox="0 0 32 32" fill="none" xmlns="http://www.w3.org/2000/svg">
<circle cx="16" cy="16" r="16" fill="#E71515" fill-opacity="0.1"/>
<path d="M11.6365 10.0002C11.4969 10.0002 11.3572 10.0533 11.2508 10.16L10.16 11.2508C9.94668 11.4641 9.94668 11.8094 10.16 12.0221L14.1378 16L10.16 19.9779C9.94668 20.1911 9.94668 20.5364 10.16 20.7492L11.2508 21.84C11.4641 22.0533 11.8094 22.0533 12.0221 21.84L16 17.8622L19.9779 21.84C20.1906 22.0533 20.5364 22.0533 20.7492 21.84L21.84 20.7492C22.0533 20.5359 22.0533 20.1906 21.84 19.9779L17.8622 16L21.84 12.0221C22.0533 11.8094 22.0533 11.4636 21.84 11.2508L20.7492 10.16C20.5359 9.94668 20.1906 9.94668 19.9779 10.16L16 14.1378L12.0221 10.16C11.9155 10.0533 11.776 10.0002 11.6365 10.0002Z" fill="#E71515"/>
</svg>
