<?xml version="1.0" encoding="utf-8"?>
<svg viewBox="-343.295 -238.356 1016.305 1126.817" xmlns="http://www.w3.org/2000/svg">
  <defs>
    <linearGradient id="paint0_linear" x1="912.972" y1="883.322" x2="923.393" y2="756.585" gradientUnits="userSpaceOnUse">
      <stop stop-color="#264653" stop-opacity="0.45"/>
      <stop offset="0.95" stop-color="#010101"/>
    </linearGradient>
    <linearGradient id="paint1_linear" x1="511.259" y1="420.517" x2="508.544" y2="870.071" gradientUnits="userSpaceOnUse">
      <stop stop-color="white" stop-opacity="0.01"/>
      <stop offset="0.07" stop-color="white" stop-opacity="0.22"/>
      <stop offset="0.16" stop-color="white" stop-opacity="0.45"/>
      <stop offset="0.25" stop-color="white" stop-opacity="0.65"/>
      <stop offset="0.33" stop-color="white" stop-opacity="0.8"/>
      <stop offset="0.4" stop-color="white" stop-opacity="0.91"/>
      <stop offset="0.46" stop-color="white" stop-opacity="0.98"/>
      <stop offset="0.51" stop-color="white"/>
    </linearGradient>
    <linearGradient id="paint2_linear" x1="257.605" y1="858.073" x2="257.705" y2="1000.31" gradientUnits="userSpaceOnUse">
      <stop stop-color="#010101" stop-opacity="0.01"/>
      <stop offset="0.95" stop-color="#010101"/>
    </linearGradient>
    <linearGradient id="paint3_linear" x1="1410.02" y1="603.966" x2="1444.2" y2="196.855" gradientUnits="userSpaceOnUse">
      <stop stop-color="white" stop-opacity="0.01"/>
      <stop offset="0.07" stop-color="white" stop-opacity="0.22"/>
      <stop offset="0.16" stop-color="white" stop-opacity="0.45"/>
      <stop offset="0.25" stop-color="white" stop-opacity="0.65"/>
      <stop offset="0.33" stop-color="white" stop-opacity="0.8"/>
      <stop offset="0.4" stop-color="white" stop-opacity="0.91"/>
      <stop offset="0.46" stop-color="white" stop-opacity="0.98"/>
      <stop offset="0.51" stop-color="white"/>
    </linearGradient>
    <linearGradient id="paint4_linear" x1="583.138" y1="493.87" x2="721.145" y2="862.142" gradientUnits="userSpaceOnUse">
      <stop stop-color="white" stop-opacity="0.01"/>
      <stop offset="0.07" stop-color="white" stop-opacity="0.22"/>
      <stop offset="0.16" stop-color="white" stop-opacity="0.45"/>
      <stop offset="0.25" stop-color="white" stop-opacity="0.65"/>
      <stop offset="0.33" stop-color="white" stop-opacity="0.8"/>
      <stop offset="0.4" stop-color="white" stop-opacity="0.91"/>
      <stop offset="0.46" stop-color="white" stop-opacity="0.98"/>
      <stop offset="0.51" stop-color="white"/>
    </linearGradient>
    <linearGradient id="paint5_linear" x1="686.668" y1="516.99" x2="683.343" y2="799.698" gradientUnits="userSpaceOnUse">
      <stop stop-color="white" stop-opacity="0.01"/>
      <stop offset="0.07" stop-color="white" stop-opacity="0.22"/>
      <stop offset="0.16" stop-color="white" stop-opacity="0.45"/>
      <stop offset="0.25" stop-color="white" stop-opacity="0.65"/>
      <stop offset="0.33" stop-color="white" stop-opacity="0.8"/>
      <stop offset="0.4" stop-color="white" stop-opacity="0.91"/>
      <stop offset="0.46" stop-color="white" stop-opacity="0.98"/>
      <stop offset="0.51" stop-color="white"/>
    </linearGradient>
    <linearGradient id="paint6_linear" x1="1002.5" y1="708.704" x2="1021.69" y2="130.785" gradientUnits="userSpaceOnUse">
      <stop stop-color="#010101" stop-opacity="0.01"/>
      <stop offset="0.95" stop-color="#010101"/>
    </linearGradient>
    <linearGradient id="paint7_linear" x1="1001.65" y1="709.045" x2="1020.84" y2="131.125" gradientUnits="userSpaceOnUse">
      <stop stop-color="#010101" stop-opacity="0.01"/>
      <stop offset="0.95" stop-color="#010101"/>
    </linearGradient>
    <linearGradient id="paint8_linear" x1="907.472" y1="706.354" x2="926.688" y2="128.435" gradientUnits="userSpaceOnUse">
      <stop stop-color="#010101" stop-opacity="0.01"/>
      <stop offset="0.95" stop-color="#010101"/>
    </linearGradient>
    <linearGradient id="paint9_linear" x1="906.62" y1="706.694" x2="925.836" y2="128.776" gradientUnits="userSpaceOnUse">
      <stop stop-color="#010101" stop-opacity="0.01"/>
      <stop offset="0.95" stop-color="#010101"/>
    </linearGradient>
    <linearGradient id="paint10_linear" x1="1000.71" y1="710.545" x2="1019.93" y2="132.627" gradientUnits="userSpaceOnUse">
      <stop stop-color="#010101" stop-opacity="0.01"/>
      <stop offset="0.95" stop-color="#010101"/>
    </linearGradient>
    <linearGradient id="paint11_linear" x1="906.682" y1="708.236" x2="925.869" y2="130.317" gradientUnits="userSpaceOnUse">
      <stop stop-color="#010101" stop-opacity="0.01"/>
      <stop offset="0.95" stop-color="#010101"/>
    </linearGradient>
    <linearGradient id="paint12_linear" x1="954.672" y1="709.396" x2="973.888" y2="131.499" gradientUnits="userSpaceOnUse">
      <stop stop-color="#010101" stop-opacity="0.01"/>
      <stop offset="0.95" stop-color="#010101"/>
    </linearGradient>
    <linearGradient id="paint13_linear" x1="956.488" y1="706.843" x2="975.704" y2="128.925" gradientUnits="userSpaceOnUse">
      <stop stop-color="#010101" stop-opacity="0.01"/>
      <stop offset="0.95" stop-color="#010101"/>
    </linearGradient>
    <linearGradient id="paint14_linear" x1="611.41" y1="721.399" x2="843.643" y2="938.094" gradientUnits="userSpaceOnUse">
      <stop stop-color="#264853"/>
      <stop offset="0.2587" stop-color="white" stop-opacity="0.22"/>
      <stop offset="0.5347" stop-color="white" stop-opacity="0.98"/>
      <stop offset="0.6181" stop-color="white"/>
      <stop offset="0.6649" stop-color="white" stop-opacity="0.8"/>
      <stop offset="0.7222" stop-color="white" stop-opacity="0.65"/>
      <stop offset="0.8054" stop-color="white" stop-opacity="0.45"/>
      <stop offset="0.9566" stop-color="white" stop-opacity="0.91"/>
    </linearGradient>
    <linearGradient id="paint15_linear" x1="960.277" y1="501.864" x2="958.492" y2="637.026" gradientUnits="userSpaceOnUse">
      <stop stop-color="white" stop-opacity="0.01"/>
      <stop offset="0.07" stop-color="white" stop-opacity="0.22"/>
      <stop offset="0.16" stop-color="white" stop-opacity="0.45"/>
      <stop offset="0.25" stop-color="white" stop-opacity="0.65"/>
      <stop offset="0.33" stop-color="white" stop-opacity="0.8"/>
      <stop offset="0.4" stop-color="white" stop-opacity="0.91"/>
      <stop offset="0.46" stop-color="white" stop-opacity="0.98"/>
      <stop offset="0.51" stop-color="white"/>
    </linearGradient>
    <linearGradient id="paint16_linear" x1="960.277" y1="611.864" x2="958.492" y2="747.026" gradientUnits="userSpaceOnUse">
      <stop stop-color="white" stop-opacity="0.01"/>
      <stop offset="0.07" stop-color="white" stop-opacity="0.22"/>
      <stop offset="0.16" stop-color="white" stop-opacity="0.45"/>
      <stop offset="0.25" stop-color="white" stop-opacity="0.65"/>
      <stop offset="0.33" stop-color="white" stop-opacity="0.8"/>
      <stop offset="0.4" stop-color="white" stop-opacity="0.91"/>
      <stop offset="0.46" stop-color="white" stop-opacity="0.98"/>
      <stop offset="0.51" stop-color="white"/>
    </linearGradient>
    <linearGradient id="paint17_linear" x1="596.437" y1="537.281" x2="596.419" y2="555.481" gradientUnits="userSpaceOnUse">
      <stop stop-color="white" stop-opacity="0.01"/>
      <stop offset="0.07" stop-color="white" stop-opacity="0.22"/>
      <stop offset="0.16" stop-color="white" stop-opacity="0.45"/>
      <stop offset="0.25" stop-color="white" stop-opacity="0.65"/>
      <stop offset="0.33" stop-color="white" stop-opacity="0.8"/>
      <stop offset="0.4" stop-color="white" stop-opacity="0.91"/>
      <stop offset="0.46" stop-color="white" stop-opacity="0.98"/>
      <stop offset="0.51" stop-color="white"/>
    </linearGradient>
    <linearGradient id="paint18_linear" x1="600" y1="604" x2="515.146" y2="604" gradientUnits="userSpaceOnUse">
      <stop offset="0.6858" stop-color="#E9CB6A" stop-opacity="0.02"/>
      <stop offset="1" stop-color="#E9CB6A"/>
    </linearGradient>
    <linearGradient id="paint19_linear" x1="433.446" y1="567.2" x2="445.097" y2="605.932" gradientUnits="userSpaceOnUse">
      <stop stop-color="#264653" stop-opacity="0.01"/>
      <stop offset="0.95" stop-color="#010101"/>
    </linearGradient>
    <linearGradient id="paint20_linear" x1="458.244" y1="715.933" x2="559.146" y2="717.976" gradientUnits="userSpaceOnUse">
      <stop stop-color="#264053" stop-opacity="0.01"/>
      <stop offset="0.95" stop-color="#010101"/>
    </linearGradient>
    <clipPath id="clip0">
      <rect width="237.472" height="461.429" fill="white" transform="matrix(-1 0 0 1 362 0)"/>
    </clipPath>
  </defs>
  <path opacity="0.5" d="M318.343 33.6942C198.405 134.217 179.819 324.298 98.5892 464.527C70.3124 513.322 33.7749 556.992 14.7119 611.123C-29.0536 735.026 31.1802 875.572 111.801 973.981C150.245 1020.93 195.149 1063.94 249.478 1083.72C291.258 1098.94 336.056 1099.57 380.033 1099.97L1150.5 1107.9C1236.52 1108.77 1332.1 1105.62 1393.95 1039.21C1436.57 993.478 1453.89 926.692 1468.58 862.944C1486.64 784.613 1503 699.546 1474.91 624.94C1442.82 539.582 1361.67 491.21 1311.26 417.555C1229.45 298.223 1231.33 117.731 1127.14 22.4664C1078.51 -21.9959 1014.33 -39.4321 951.792 -48.1502C833.892 -64.6089 722.215 -33.5408 606.433 -37.8734C507.464 -41.572 400.447 -35.1259 318.343 33.6942Z" fill="#E9C46A" transform="matrix(1, 0, 0, 1, -332.498352, -234.957733)"/>
  <path opacity="0.24" d="M563.078 930.613C516.629 935.283 468.755 940.419 427.881 963.264C422.41 966.328 416.856 969.942 413.837 975.458C407.78 986.553 414.655 1001.18 425.324 1007.86C435.993 1014.53 449.156 1015.29 461.712 1015.84C685.279 1025.59 909.181 1021.76 1132.94 1017.96C1197.92 1016.86 1263.92 1015.59 1326.19 996.718C1337.39 993.337 1349.69 988.265 1353.9 977.212C1359.42 962.757 1346.84 946.738 1332.17 942.236C1317.5 937.735 1301.84 941.095 1286.66 943.06C1233.97 949.887 1180.81 939.447 1128.35 931.099C1025.64 914.784 919.075 901.512 815.047 899.04C779.581 898.215 749.293 910.515 714.582 915.376C664.465 922.434 613.467 925.541 563.078 930.613Z" fill="#505F98" transform="matrix(1, 0, 0, 1, -332.498352, -234.957733)"/>
  <rect x="790.837" y="815" width="98.0679" height="82" fill="#505F98" transform="matrix(1, 0, 0, 1, -332.498352, -234.957733)"/>
  <rect x="790.837" y="815" width="98.0679" height="82" fill="url(#paint0_linear)" transform="matrix(1, 0, 0, 1, -332.498352, -234.957733)"/>
  <rect x="582.693" y="473" width="518.359" height="355" rx="9.37" fill="#264653" transform="matrix(1, 0, 0, 1, -332.498352, -234.957733)"/>
  <path opacity="0.65" d="M1084.04 502.438V796.562C1084.06 801.443 1082.13 806.129 1078.69 809.588C1075.25 813.047 1070.58 814.994 1065.7 815H614.039C609.165 814.989 604.494 813.04 601.056 809.582C597.617 806.124 595.691 801.441 595.702 796.562V502.438C595.691 497.559 597.617 492.875 601.056 489.418C604.494 485.96 609.165 484.011 614.039 484H1065.7C1070.58 484.005 1075.25 485.952 1078.69 489.411C1082.13 492.87 1084.06 497.557 1084.04 502.438Z" fill="url(#paint1_linear)" transform="matrix(1, 0, 0, 1, -332.498352, -234.957733)"/>
  <rect x="739" y="887" width="206.143" height="21" fill="#264653" transform="matrix(1, 0, 0, 1, -332.498352, -234.957733)"/>
  <rect x="790.837" y="875" width="98.0679" height="12" fill="url(#paint2_linear)" transform="matrix(1, 0, 0, 1, -332.498352, -234.957733)"/>
  <path d="M1084.04 502.513V509H595.702V502.513C595.691 497.614 597.617 492.912 601.056 489.44C604.495 485.968 609.166 484.011 614.041 484H1065.7C1070.58 484.005 1075.25 485.96 1078.69 489.433C1082.13 492.907 1084.06 497.612 1084.04 502.513Z" fill="url(#paint3_linear)" transform="matrix(1, 0, 0, 1, -332.498352, -234.957733)"/>
  <rect x="605.709" y="541" width="47.0326" height="227" fill="url(#paint4_linear)" transform="matrix(1, 0, 0, 1, -332.498352, -234.957733)"/>
  <rect x="723.791" y="557" width="221.153" height="209" fill="url(#paint5_linear)" transform="matrix(1, 0, 0, 1, -332.498352, -234.957733)"/>
  <rect x="774.826" y="655" width="7.00485" height="9" fill="url(#paint6_linear)" transform="matrix(1, 0, 0, 1, -332.498352, -234.957733)"/>
  <rect x="774.826" y="613" width="7.00485" height="9" fill="url(#paint7_linear)" transform="matrix(1, 0, 0, 1, -332.498352, -234.957733)"/>
  <rect x="679.76" y="655" width="7.00485" height="9" fill="url(#paint8_linear)" transform="matrix(1, 0, 0, 1, -332.498352, -234.957733)"/>
  <rect x="679.76" y="613" width="7.00485" height="9" fill="url(#paint9_linear)" transform="matrix(1, 0, 0, 1, -332.498352, -234.957733)"/>
  <rect x="774.826" y="568" width="7.00485" height="9" fill="url(#paint10_linear)" transform="matrix(1, 0, 0, 1, -332.498352, -234.957733)"/>
  <rect x="680.761" y="568" width="7.00485" height="9" fill="url(#paint11_linear)" transform="matrix(1, 0, 0, 1, -332.498352, -234.957733)"/>
  <rect x="728.794" y="568" width="7.00485" height="9" fill="url(#paint12_linear)" transform="matrix(1, 0, 0, 1, -332.498352, -234.957733)"/>
  <rect x="728.794" y="655" width="7.00485" height="9" fill="url(#paint13_linear)" transform="matrix(1, 0, 0, 1, -332.498352, -234.957733)"/>
  <path fill-rule="evenodd" clip-rule="evenodd" d="M692.769 653H770.823V580H692.769V653ZM762.961 645.282H700.631V587.656H762.961V645.282Z" fill="#505F98" transform="matrix(1, 0, 0, 1, -332.498352, -234.957733)"/>
  <path fill-rule="evenodd" clip-rule="evenodd" d="M692.769 653H770.823V580H692.769V653ZM762.961 645.282H700.631V587.656H762.961V645.282Z" fill="url(#paint14_linear)" transform="matrix(1, 0, 0, 1, -332.498352, -234.957733)"/>
  <rect x="976.966" y="521" width="100.069" height="100" fill="url(#paint15_linear)" transform="matrix(1, 0, 0, 1, -332.498352, -234.957733)"/>
  <rect x="976.966" y="631" width="100.069" height="100" fill="url(#paint16_linear)" transform="matrix(1, 0, 0, 1, -332.498352, -234.957733)"/>
  <rect opacity="0.65" x="605.709" y="540" width="47.0326" height="13" fill="url(#paint17_linear)" transform="matrix(1, 0, 0, 1, -332.498352, -234.957733)"/>
  <path d="M479.958 436.761L504.99 416.632L537.425 456.863L512.393 476.991L479.958 436.761Z" fill="#505F98" transform="matrix(1, 0, 0, 1, -332.498352, -234.957733)"/>
  <path d="M504.886 416.846L529.918 396.718L562.353 436.948L537.321 457.077L504.886 416.846Z" fill="#505F98" transform="matrix(1, 0, 0, 1, -332.498352, -234.957733)"/>
  <path d="M372 471.517L498.762 241.125L566.072 278.046L439.31 508.438L372 471.517Z" fill="white" transform="matrix(1, 0, 0, 1, -332.498352, -234.957733)"/>
  <path d="M399.873 464.796L415.32 436.536L460.523 461.169L445.076 489.429L399.873 464.796Z" fill="#1A6158" transform="matrix(1, 0, 0, 1, -332.498352, -234.957733)"/>
  <path d="M414.596 437.54L430.045 409.379L475.384 434.176L459.934 462.338L414.596 437.54Z" fill="#1E7167" transform="matrix(1, 0, 0, 1, -332.498352, -234.957733)"/>
  <path d="M430.04 409.598L445.49 381.437L490.829 406.234L475.379 434.395L430.04 409.598Z" fill="#228176" transform="matrix(1, 0, 0, 1, -332.498352, -234.957733)"/>
  <path d="M445.475 381.674L460.925 353.513L506.264 378.31L490.814 406.472L445.475 381.674Z" fill="#279185" transform="matrix(1, 0, 0, 1, -332.498352, -234.957733)"/>
  <path d="M460.282 354.362L475.73 326.102L521.227 350.895L505.779 379.155L460.282 354.362Z" fill="#2A9D8F" transform="matrix(1, 0, 0, 1, -332.498352, -234.957733)"/>
  <path d="M491.707 296.859L510.94 261.789L556.283 286.58L537.049 321.649L491.707 296.859Z" fill="#BFEEE8" transform="matrix(1, 0, 0, 1, -332.498352, -234.957733)"/>
  <path d="M532.983 328.675L520.44 352.493L475.739 326.3L488.281 302.483L532.983 328.675Z" fill="#33C1B1" transform="matrix(1, 0, 0, 1, -332.498352, -234.957733)"/>
  <path d="M485.488 307.994L497.77 285.614L543.076 310.401L530.793 332.781L485.488 307.994Z" fill="#4ED0C1" transform="matrix(1, 0, 0, 1, -332.498352, -234.957733)"/>
  <path d="M400 478.697L605.128 314.163L653.241 373.988L448.112 538.522L400 478.697Z" fill="white" transform="matrix(1, 0, 0, 1, -332.498352, -234.957733)"/>
  <path d="M428.327 483.127L453.395 462.907L485.767 502.934L460.7 523.154L428.327 483.127Z" fill="#1A6158" transform="matrix(1, 0, 0, 1, -332.498352, -234.957733)"/>
  <path d="M452.342 463.559L477.374 443.43L509.809 483.66L484.776 503.789L452.342 463.559Z" fill="#1E7167" transform="matrix(1, 0, 0, 1, -332.498352, -234.957733)"/>
  <path d="M477.285 443.631L502.318 423.503L534.752 463.733L509.72 483.861L477.285 443.631Z" fill="#228176" transform="matrix(1, 0, 0, 1, -332.498352, -234.957733)"/>
  <path d="M502 424.166L527.032 404.037L559.467 444.267L534.435 464.396L502 424.166Z" fill="#279185" transform="matrix(1, 0, 0, 1, -332.498352, -234.957733)"/>
  <path d="M526.327 404.127L551.395 383.907L583.977 424.194L558.91 444.414L526.327 404.127Z" fill="#2A9D8F" transform="matrix(1, 0, 0, 1, -332.498352, -234.957733)"/>
  <path d="M577.327 362.98L608.494 337.912L640.935 378.137L609.768 403.206L577.327 362.98Z" fill="#BFEEE8" transform="matrix(1, 0, 0, 1, -332.498352, -234.957733)"/>
  <path d="M603.327 408.147L582.641 425.37L551.327 384.094L572.014 366.87L603.327 408.147Z" fill="#33C1B1" transform="matrix(1, 0, 0, 1, -332.498352, -234.957733)"/>
  <path d="M567.327 370.897L587.224 354.903L619.633 395.111L599.736 411.105L567.327 370.897Z" fill="#4ED0C1" transform="matrix(1, 0, 0, 1, -332.498352, -234.957733)"/>
  <path d="M525.653 481.15V604H504.639V481.15C504.639 476.61 507.457 472.57 511.657 471.089V458.825C511.657 456.712 513.333 455 515.4 455C517.468 455 519.144 456.712 519.144 458.825V471.297C523.063 472.935 525.632 476.823 525.653 481.15Z" fill="#505F98" transform="matrix(1, 0, 0, 1, -332.498352, -234.957733)"/>
  <path d="M525.653 481.15V604H504.639V481.15C504.639 476.61 507.457 472.57 511.657 471.089V458.825C511.657 456.712 513.333 455 515.4 455C517.468 455 519.144 456.712 519.144 458.825V471.297C523.063 472.935 525.632 476.823 525.653 481.15Z" fill="url(#paint18_linear)" transform="matrix(1, 0, 0, 1, -332.498352, -234.957733)"/>
  <rect x="491.63" y="559" width="50.0346" height="9" rx="2.245" fill="#505F98" transform="matrix(1, 0, 0, 1, -332.498352, -234.957733)"/>
  <path d="M516.336 641C507.763 641 500.636 628.185 500.636 619.634V563H531.658V619.634C531.658 628.185 524.887 641 516.336 641Z" fill="#505F98" transform="matrix(1, 0, 0, 1, -332.498352, -234.957733)"/>
  <rect x="491.63" y="559" width="50.0346" height="9" rx="2.245" fill="url(#paint19_linear)" transform="matrix(1, 0, 0, 1, -332.498352, -234.957733)"/>
  <path d="M516.336 641C507.763 641 500.636 628.366 500.636 619.937V568H531.658V619.937C531.658 628.366 524.887 641 516.336 641Z" fill="url(#paint20_linear)" transform="matrix(1, 0, 0, 1, -332.498352, -234.957733)"/>
  <path d="M 340.792 830.718 C 340.792 830.718 179.869 833.832 167.073 821.919 C 154.289 810.015 476.575 805.722 476.575 825.129 L 423.419 830.767 L 340.792 830.718 Z" fill="#505F98" fill-opacity="0.12" transform="matrix(1, 0, 0, 1, 109.063934, 24.726555)"/>
  <g clip-path="url(#clip0)" transform="matrix(1, 0, 0, 1, 278.379517, 388.328278)">
    <path d="M281.24 453.639V439.385L306.612 439.22L306.944 460.766L305.285 460.932C298.32 461.429 269.631 462.092 264.822 460.601C259.681 458.943 281.24 453.639 281.24 453.639Z" fill="#E76F51"/>
    <path d="M264.325 459.109C264.325 459.275 273.777 459.606 285.551 459.606C297.325 459.606 306.778 459.44 306.778 459.109C306.778 458.943 297.325 458.612 285.551 458.612C273.777 458.777 264.325 458.943 264.325 459.109Z" fill="#263238"/>
    <path d="M280.742 456.623C280.908 456.457 280.742 455.794 280.245 454.965C279.747 454.302 279.084 453.805 278.918 453.971C278.752 454.137 279.084 454.8 279.581 455.463C280.079 456.126 280.576 456.623 280.742 456.623Z" fill="#263238"/>
    <path d="M279.25 457.452C279.415 457.452 279.415 456.457 278.918 455.628C278.42 454.8 277.757 454.137 277.591 454.302C277.425 454.468 277.757 455.131 278.255 455.96C278.586 456.954 278.918 457.617 279.25 457.452Z" fill="#263238"/>
    <path d="M299.15 459.109C299.315 459.109 299.647 458.777 300.145 458.114C300.642 457.451 301.471 456.623 302.3 455.96C303.295 455.297 304.29 454.8 305.12 454.8C305.949 454.634 306.446 454.8 306.446 454.634C306.446 454.468 305.949 454.137 305.12 454.137C304.29 454.137 302.964 454.468 301.803 455.297C300.808 456.126 299.979 457.12 299.647 457.783C299.315 458.612 298.984 459.109 299.15 459.109Z" fill="#263238"/>
    <path d="M280.742 453.971C280.576 454.137 281.074 454.634 281.737 454.965C282.4 455.297 283.064 455.131 283.23 454.965C283.23 454.8 282.732 454.468 282.069 454.137C281.405 453.805 280.908 453.639 280.742 453.971Z" fill="#263238"/>
    <path d="M281.074 452.479C281.074 452.645 281.737 452.976 282.566 452.976C283.395 452.976 284.059 452.811 284.059 452.645C284.059 452.479 283.395 452.148 282.566 452.148C281.903 452.148 281.24 452.313 281.074 452.479Z" fill="#263238"/>
    <path d="M218.721 453.639V439.385L244.093 439.22L244.259 460.601L242.601 460.766C235.636 461.264 206.947 462.092 202.138 460.601C197.163 458.943 218.721 453.639 218.721 453.639Z" fill="#E76F51"/>
    <path d="M201.806 459.275C201.806 459.44 211.258 459.772 223.032 459.772C234.807 459.772 244.259 459.606 244.259 459.275C244.259 459.109 234.807 458.777 223.032 458.777C211.258 458.777 201.806 458.943 201.806 459.275Z" fill="#263238"/>
    <path d="M218.223 456.623C218.389 456.457 218.223 455.794 217.726 454.965C217.228 454.302 216.565 453.805 216.399 453.971C216.233 454.137 216.565 454.8 217.063 455.463C217.56 456.126 218.058 456.623 218.223 456.623Z" fill="#263238"/>
    <path d="M216.565 457.452C216.731 457.452 216.731 456.457 216.233 455.628C215.736 454.8 215.073 454.137 214.907 454.302C214.741 454.468 215.073 455.131 215.57 455.96C215.902 456.954 216.399 457.617 216.565 457.452Z" fill="#263238"/>
    <path d="M236.465 459.109C236.631 459.109 236.962 458.777 237.46 458.114C237.957 457.451 238.787 456.623 239.616 455.96C240.611 455.297 241.606 454.8 242.435 454.8C243.264 454.634 243.762 454.8 243.762 454.634C243.762 454.468 243.264 454.137 242.435 454.137C241.606 454.137 240.279 454.468 239.118 455.297C238.123 456.126 237.294 457.12 236.962 457.783C236.631 458.612 236.465 459.109 236.465 459.109Z" fill="#263238"/>
    <path d="M218.058 453.971C217.892 454.137 218.389 454.634 219.053 454.965C219.716 455.297 220.379 455.131 220.545 454.965C220.545 454.8 220.047 454.468 219.384 454.137C218.887 453.805 218.223 453.639 218.058 453.971Z" fill="#263238"/>
    <path d="M218.555 452.479C218.555 452.645 219.218 452.976 220.047 452.976C220.877 452.976 221.54 452.811 221.54 452.645C221.54 452.479 220.877 452.148 220.047 452.148C219.218 452.148 218.555 452.313 218.555 452.479Z" fill="#263238"/>
    <path d="M125.026 32.8172C125.689 32.1542 127.347 32.4857 127.347 32.4857C127.347 32.4857 127.016 30.4968 127.347 29.6681C127.679 28.6736 129.669 28.8393 129.669 28.8393C129.669 28.8393 129.835 28.0106 129.669 26.5189C129.669 26.1874 129.835 25.856 130.166 25.6902C131.161 25.0272 133.317 25.193 133.317 25.193C134.644 24.1985 129.337 17.0716 127.513 14.7512C125.689 12.4307 125.855 10.6076 127.679 10.6076C128.84 10.6076 134.975 17.5688 136.8 19.8892C138.624 22.2096 143.599 28.6736 143.765 23.5355C143.93 18.3975 146.086 14.4197 147.247 13.7567C148.574 13.0937 149.9 14.5854 149.237 16.0771C148.574 17.2373 148.242 19.5577 148.076 21.2151C147.91 22.5411 147.91 24.0328 148.242 25.3587C149.071 29.1708 150.066 31.8227 150.398 32.8172H150.564C150.564 32.8172 186.715 67.4575 189.369 69.9437C191.69 72.0983 238.787 67.2918 248.239 66.2973C250.892 65.9658 254.706 65.4686 257.857 65.6343C262.003 65.8001 262.666 66.4631 266.812 66.4631C279.415 66.6288 289.697 67.789 297.491 69.115C306.944 70.7724 314.572 77.4021 317.557 86.518C327.009 116.186 348.568 186.461 352.382 225.908C355.367 231.543 358.849 238.173 360.176 241.985C362.829 249.278 362.166 249.444 361.337 249.609C358.849 250.107 356.196 237.013 355.201 240.162C354.206 243.311 360.508 255.742 357.854 256.073C354.538 256.571 351.884 242.814 351.553 241.654C351.221 240.494 349.563 240.991 349.894 241.985C350.392 243.477 355.035 258.891 351.718 259.388C349.894 259.72 349.728 256.405 349.728 256.405C349.728 256.405 346.412 241.654 344.919 241.819C343.427 242.151 345.085 250.935 345.748 253.753C346.578 256.571 345.417 258.228 343.924 257.399C342.929 256.902 340.276 248.118 339.613 245.134C338.949 242.317 337.125 234.195 334.804 238.836C332.482 243.477 328.999 246.129 327.507 246.129C326.014 246.129 325.351 244.14 326.678 243.145C327.673 242.317 328.999 240.494 329.829 239.002C330.492 237.842 331.155 236.516 331.487 235.19C332.648 229.886 332.648 226.737 332.648 226.737L332.979 225.079C329.331 206.682 318.552 152.815 303.13 118.341L296.828 131.434L294.009 141.048L310.924 182.649L238.952 181.655L249.732 140.385L236.631 97.2913C222.535 97.6228 186.218 98.12 180.248 95.4681C172.619 92.1533 133.317 42.596 133.317 42.596C130.664 40.4414 128.011 38.2867 126.021 36.2978C125.855 36.2978 123.533 34.3089 125.026 32.8172Z" fill="#FFBE9D"/>
    <path d="M314.074 152.152C311.919 145.025 301.305 109.722 301.305 109.722C301.305 109.722 295.999 138.396 297.491 141.876C299.15 145.854 301.969 150.495 301.969 150.495C314.074 169.058 312.582 178.34 312.582 178.34L239.118 176.019C238.952 165.743 245.088 141.876 246.249 138.064C247.576 134.252 243.264 121.821 243.264 121.821C243.264 121.821 234.972 113.368 235.304 109.059C235.967 100.275 236.797 97.4571 236.797 97.4571L192.022 99.1145L193.348 68.7835L257.526 62.3195C259.681 68.6177 280.079 65.4686 280.079 65.4686C301.969 66.1316 303.295 70.2752 312.416 77.2364C321.537 84.3633 336.628 144.86 336.628 144.86L314.074 152.152Z" fill="#E76F51"/>
    <path d="M270.461 144.86C270.461 145.025 271.953 145.025 274.275 145.025C276.596 145.025 279.913 144.86 283.561 144.528C287.375 144.197 290.692 143.699 293.014 143.202C295.335 142.705 296.828 142.373 296.828 142.208C296.828 142.042 295.335 142.208 293.014 142.539C290.692 142.871 287.375 143.202 283.727 143.699C280.079 144.031 276.762 144.362 274.441 144.528C271.953 144.694 270.461 144.86 270.461 144.86Z" fill="#263238"/>
    <path d="M265.486 138.727C265.486 138.893 266.978 139.39 269.466 140.053C271.953 140.716 275.601 141.545 279.581 142.042C283.561 142.539 287.21 142.539 289.863 142.539C292.516 142.539 294.009 142.208 294.009 142.208C294.009 142.042 292.35 142.042 289.863 142.042C287.21 142.042 283.727 141.711 279.747 141.379C275.767 140.882 272.285 140.219 269.797 139.722C267.144 138.893 265.486 138.561 265.486 138.727Z" fill="#263238"/>
    <path d="M240.777 110.717C240.611 110.717 240.777 112.208 241.274 114.529C241.772 116.849 242.435 119.998 243.264 123.479C244.093 126.959 244.922 130.108 245.586 132.263C246.249 134.418 246.747 135.91 246.912 135.744C247.078 135.744 246.747 134.252 246.249 132.097C245.586 129.446 244.922 126.462 244.093 123.313C243.264 119.998 242.601 117.015 241.937 114.529C241.274 112.208 240.942 110.717 240.777 110.717Z" fill="#263238"/>
    <path d="M313.245 147.843C313.245 148.009 318.386 146.849 324.522 145.191C330.658 143.534 335.633 141.876 335.633 141.711C335.633 141.545 330.492 142.705 324.356 144.362C318.22 146.02 313.245 147.677 313.245 147.843Z" fill="#263238"/>
    <path d="M235.802 96.9598C235.802 96.9598 236.465 97.1256 237.626 96.9598C238.787 96.7941 240.611 96.6283 242.601 95.7996C244.591 94.9709 247.078 93.8107 249.234 91.8218C251.39 89.8329 253.38 87.181 254.706 84.0319C256.033 80.8827 256.365 77.5679 256.199 74.7502C256.033 71.7668 255.204 69.2807 253.877 67.2918C252.551 65.4686 250.892 64.4741 249.731 64.1427C249.068 63.9769 248.571 63.9769 248.239 63.9769C247.907 63.9769 247.741 63.9769 247.741 63.9769C247.741 63.9769 248.405 63.9769 249.566 64.4741C250.726 64.8056 252.219 65.8001 253.38 67.6233C255.701 71.1039 256.199 77.5679 253.877 83.7004C252.716 86.6837 250.892 89.3356 248.736 91.1588C246.581 93.1477 244.425 94.3079 242.435 95.1367C238.455 96.7941 235.802 96.7941 235.802 96.9598Z" fill="#263238"/>
    <path d="M197.163 98.4515C197.328 98.4515 197.66 91.656 197.494 83.2031C197.494 74.7502 197.328 67.9548 196.997 67.9548C196.831 67.9548 196.499 74.7502 196.665 83.2031C196.665 91.656 196.831 98.4515 197.163 98.4515Z" fill="#263238"/>
    <path d="M258.023 64.1426C257.857 60.4963 257.526 56.187 257.526 56.187C257.526 56.187 248.405 55.1925 247.741 45.7451C247.244 36.2978 247.741 14.5854 247.741 14.5854L264.325 6.1325L282.732 20.5522L279.913 67.789L262.998 68.7835C260.345 68.9492 258.023 66.7945 258.023 64.1426Z" fill="#FFBE9D"/>
    <path d="M256.365 38.2867C256.365 38.2867 256.365 38.4524 256.531 38.6182C256.696 38.7839 257.028 39.1154 257.526 39.1154C258.521 39.1154 259.681 37.9552 260.013 36.4635C260.179 35.8005 260.179 34.9718 260.013 34.3089C259.847 33.6459 259.516 32.9829 259.018 32.8172C258.852 32.6514 258.521 32.8172 258.355 32.8172C258.189 32.9829 258.023 32.9829 258.023 33.1487C257.857 33.4801 258.023 33.6459 258.023 33.6459C258.023 33.6459 258.023 33.4801 258.189 33.3144C258.355 33.1487 258.686 32.9829 259.018 33.1487C259.35 33.3144 259.681 33.8116 259.681 34.3089C259.847 34.8061 259.847 35.4691 259.681 36.132C259.35 37.458 258.521 38.4524 257.691 38.6182C257.36 38.6182 257.028 38.4524 256.862 38.4524C256.365 38.4524 256.365 38.2867 256.365 38.2867Z" fill="#EB996E"/>
    <path d="M241.937 9.44737C243.264 5.13804 247.907 2.98338 252.053 1.82318C258.521 -2.01166e-07 265.486 -0.828717 271.621 1.49169C277.923 3.8121 285.385 7.78993 285.385 14.7512C289.034 14.4197 291.19 17.7345 292.682 21.7124C293.511 24.0328 294.175 26.6847 294.175 29.3366C294.672 38.4524 297.16 50.8832 303.129 57.5129C306.446 61.1593 311.089 63.8112 312.914 68.452C314.572 72.4298 313.743 77.2364 315.235 81.2142C316.562 84.8606 319.713 87.3467 321.869 90.4958C326.678 97.2913 327.009 106.739 323.527 114.363C320.044 121.987 313.079 127.457 305.451 129.943C297.823 132.429 289.365 132.263 281.571 130.108C275.767 128.617 270.129 126.131 265.651 122.153C261.008 118.175 257.526 112.705 256.531 106.739C255.37 99.9432 257.194 93.1477 258.686 86.3523C263.164 65.1371 261.837 63.9769 256.199 44.2535C256.033 43.922 256.033 43.5905 255.867 43.259C255.867 42.9275 255.701 42.7618 255.701 42.4303C255.536 41.6016 255.37 40.9386 255.37 40.1099C257.028 40.7729 258.852 40.2756 260.179 39.1154C261.34 37.7895 261.837 35.8006 261.34 34.1431C260.676 32.1542 258.852 30.8283 257.028 30.1653C255.204 29.3366 253.214 29.0051 251.39 28.1764C247.576 26.3532 244.922 22.5411 243.098 18.5632C242.103 15.5799 241.108 12.4307 241.937 9.44737Z" fill="#263238"/>
    <path d="M255.701 38.6182C255.701 38.6182 255.37 39.2812 254.872 40.2756C254.375 41.2701 253.711 42.7618 253.048 44.4192L252.882 44.7507H253.214C253.711 44.7507 254.375 44.9164 254.872 44.9164C256.033 44.9164 257.028 45.0822 258.189 45.0822C258.355 45.0822 258.521 44.9164 258.686 44.7507C258.686 44.5849 258.686 44.4192 258.686 44.2535C258.686 43.922 258.521 43.7562 258.521 43.5905L258.189 42.4303C257.857 40.9386 257.526 40.1099 257.526 40.1099C257.526 40.1099 257.526 41.1043 257.857 42.4303L258.023 43.5905C258.189 43.922 258.189 44.5849 258.023 44.5849C257.194 44.5849 256.033 44.4192 254.872 44.2535C254.375 44.2535 253.711 44.0877 253.214 44.0877L253.38 44.7507C254.043 43.0933 254.706 41.6016 255.038 40.4414C255.536 39.4469 255.701 38.7839 255.701 38.6182Z" fill="#E76F51"/>
    <path d="M312.416 178.174L238.952 175.854L206.947 300.658L212.751 444.192H251.721L246.912 303.973L275.436 217.124L271.124 449.827L310.426 450.325L314.572 231.709C314.738 225.577 316.728 211.986 316.064 205.853L312.416 178.174Z" fill="#263238"/>
    <path d="M265.486 218.781C265.486 218.947 266.812 218.781 269.134 218.615C271.456 218.45 274.441 217.952 277.757 217.289C281.074 216.627 284.059 215.798 286.215 215.301C288.37 214.638 289.697 214.14 289.697 214.14C289.697 213.975 284.225 215.135 277.591 216.461C270.958 217.621 265.486 218.45 265.486 218.781Z" fill="#455A64"/>
    <path d="M213.083 436.236C213.083 436.402 221.872 436.734 232.817 436.734C243.762 436.734 252.551 436.568 252.551 436.236C252.551 436.071 243.762 435.739 232.817 435.739C222.038 435.905 213.083 436.071 213.083 436.236Z" fill="#455A64"/>
    <path d="M271.29 443.695C271.29 443.861 279.913 444.192 290.36 444.192C300.974 444.192 309.431 444.026 309.431 443.695C309.431 443.529 300.808 443.198 290.36 443.198C279.913 443.198 271.29 443.363 271.29 443.695Z" fill="#455A64"/>
    <path d="M276.43 443.032C276.596 443.032 277.757 392.149 278.752 329.498C279.747 266.847 280.41 215.964 280.245 215.964C280.079 215.964 278.918 266.847 277.923 329.498C276.762 392.149 276.099 443.032 276.43 443.032Z" fill="#455A64"/>
    <path d="M218.389 436.236C218.389 436.236 218.389 436.071 218.389 435.573C218.389 435.076 218.389 434.413 218.389 433.585C218.389 431.761 218.223 429.275 218.223 425.96C218.057 419.331 217.726 409.717 217.228 397.95C216.399 374.248 215.072 341.431 213.746 305.465C213.746 305.133 213.746 304.802 213.746 304.47V304.636C222.535 269.83 230.329 238.173 235.967 215.301C238.787 203.864 241.108 194.748 242.601 188.284C243.43 185.135 243.927 182.649 244.425 180.992C244.591 180.163 244.756 179.5 244.922 179.003C245.088 178.506 245.088 178.34 245.088 178.34C245.088 178.34 244.922 178.506 244.922 179.003C244.756 179.5 244.591 180.163 244.425 180.826C243.927 182.483 243.264 184.97 242.435 188.119C240.776 194.583 238.455 203.699 235.47 215.135C229.666 238.007 221.706 269.499 212.917 304.305C212.917 304.636 212.917 304.968 212.917 305.299C214.409 341.431 215.736 374.083 216.731 397.784C217.228 409.552 217.726 419.165 218.057 425.795C218.223 429.109 218.389 431.596 218.389 433.419C218.389 434.247 218.555 434.91 218.555 435.408C218.389 436.071 218.389 436.236 218.389 436.236Z" fill="#455A64"/>
    <path d="M230.992 301.487C230.992 301.653 234.807 302.647 239.616 303.476C243.264 304.139 246.249 304.47 247.576 304.636V304.305C247.078 304.47 246.912 304.47 246.912 304.636C246.912 304.636 247.244 304.636 247.576 304.636H248.571L247.576 304.305C246.249 303.973 243.264 303.31 239.616 302.647C234.972 301.653 231.158 301.156 230.992 301.487Z" fill="#455A64"/>
    <path d="M231.822 306.294C231.822 306.459 235.304 306.294 239.616 305.962C243.927 305.631 247.244 305.299 247.244 305.133C247.244 304.968 243.761 304.802 239.45 305.133C235.138 305.299 231.822 305.962 231.822 306.294Z" fill="#455A64"/>
    <path opacity="0.2" d="M312.748 180.826C310.924 183.312 308.436 184.141 305.451 184.638C302.466 185.135 299.481 184.804 296.496 184.472C277.591 182.318 257.36 180.494 238.787 175.854C262.832 177.18 288.205 176.682 312.25 178.174C312.25 178.174 312.416 179.831 312.582 180.163" fill="black"/>
    <g opacity="0.2">
      <path opacity="0.2" d="M287.873 214.803L274.44 267.344L275.27 216.958L287.873 214.803Z" fill="black"/>
    </g>
  </g>
</svg>