<svg width="351" height="492" viewBox="0 0 351 492" fill="none" xmlns="http://www.w3.org/2000/svg">
<g clip-path="url(#clip0)">
<path d="M195.653 33.3145C195.653 33.3145 200.057 20.5869 197.661 19.9783C195.278 19.3957 194.047 22.283 194.047 22.283C194.047 22.283 190.188 5.93005 188.504 3.53472C186.846 1.15235 181.005 -1.47604 178.803 0.95813C176.588 3.37935 176.653 19.2791 178.88 26.7241C181.095 34.1302 185.046 37.3541 185.046 37.3541C185.046 37.3541 194.514 36.901 195.653 33.3145Z" fill="#F3B698"/>
<path d="M195.252 489.177C195.252 489.177 14.7654 493.346 0.41452 477.395C-13.9234 461.456 347.542 455.708 347.542 481.694L287.924 489.242L195.252 489.177Z" fill="#505F98" fill-opacity="0.12"/>
<path d="M347.296 447.745L351 457.857L347.542 481.707H342.97L340.742 469.51L335.069 480.878C335.069 480.878 319.812 483.804 316.34 477.136C312.869 470.481 319.617 468.539 323.671 468.539L328.956 447.46C328.943 447.447 340.846 445.052 347.296 447.745Z" fill="#10122B"/>
<path d="M315.576 382.398C321.314 399.074 328.839 449.195 328.839 449.195C330.445 449.532 331.973 449.739 333.398 449.855C342.491 450.697 347.309 447.745 347.309 447.745C348.785 409.096 335.768 357.46 335.768 357.46C339.563 337.094 338.165 238.29 338.165 238.29C326.585 234.664 318.555 239.481 312.999 242.342C299.27 249.269 300.332 271.941 299.451 291.246C298.195 318.41 309.89 365.721 315.576 382.398Z" fill="url(#paint0_linear)"/>
<path d="M315.576 382.398C321.314 399.074 328.839 449.195 328.839 449.195C330.445 449.532 331.973 449.739 333.398 449.855C331.779 426.834 328.191 383.602 323.399 370.343C316.768 351.958 313.983 298.38 322.246 271.565C326.495 257.854 320.187 248.337 312.999 242.342C299.27 249.269 300.332 271.941 299.451 291.246C298.195 318.41 309.89 365.721 315.576 382.398Z" fill="#228176"/>
<path d="M287.211 458.776C287.211 458.776 288.908 458.478 289.685 469.497C290.061 474.767 290.138 474.106 288.027 489.19C288.027 489.19 285.515 490.291 284.414 489.19L281.085 476.566C281.085 476.566 271.371 490.433 264.856 491.417C258.341 492.375 234.471 492.66 234.341 488.362C234.199 484.063 249.469 479.195 254.184 475.388C258.898 471.581 269.014 457.43 269.014 457.43C269.014 457.43 284.323 456.484 287.211 458.776Z" fill="#10122B"/>
<path d="M262.136 307.728C266.229 350.805 269.765 370.317 269.765 370.317L269.027 457.352V457.43C269.027 457.43 279.064 460.524 287.237 458.75C287.237 458.75 298.933 409.523 295.229 372.415C295.229 372.415 311.445 288.216 311.237 282.48C311.237 282.48 329.409 263.473 328.839 249.994C328.502 242.109 307.378 243.443 289.918 245.929C277.51 247.677 266.967 249.994 266.967 249.994C266.967 249.994 258.043 264.677 262.136 307.728Z" fill="url(#paint1_linear)"/>
<path d="M262.136 307.728C266.229 350.805 269.765 370.317 269.765 370.317L269.027 457.352C285.139 427.805 278.028 327.797 277.057 293.965C276.409 272.07 283.52 255.899 289.918 245.903C277.51 247.651 266.967 249.969 266.967 249.969C266.967 249.969 258.043 264.677 262.136 307.728Z" fill="#228176"/>
<path d="M343.967 153.016C343.294 179.714 337.621 192.791 332.233 193.827C331.973 193.918 331.676 193.918 331.417 193.918C329.785 193.892 327.596 193.4 325.368 192.727C324.656 192.532 323.943 192.286 323.218 192.079C321.884 191.613 320.55 191.121 319.319 190.642C316.159 189.425 313.724 188.324 313.724 188.324L330.277 113.5L330.873 110.923C330.873 110.923 332.53 112.619 334.68 116.037C336.429 118.769 338.449 122.563 340.211 127.509C342.478 134.086 344.239 142.58 343.967 153.016Z" fill="url(#paint2_linear)"/>
<path d="M332.233 193.827C331.973 193.918 331.676 193.918 331.417 193.918C329.785 193.892 327.596 193.4 325.368 192.727C323.671 191.302 322.855 189.308 322.855 189.308L334.667 116.037C336.416 118.769 338.437 122.563 340.198 127.509C344.071 149.313 334.771 178.406 332.233 193.827Z" fill="#3A4983"/>
<path d="M301.238 44.0352L303.919 46.1974C304.075 45.4076 304.191 44.825 304.191 44.825L327.168 52.244L323.917 107.841L316.638 123.534C309.994 129.891 290.657 125.787 289.918 125.748C289.193 125.709 289.879 104.967 290.074 103.128C290.087 103.103 290.061 103.064 290.074 103.038C278.197 97.6905 273.897 97.7811 282.963 70.5132C292.638 41.4068 301.238 44.0352 301.238 44.0352Z" fill="#F3B698"/>
<path d="M273.223 186.887C273.223 186.887 271.837 235.079 266.98 249.994C266.98 249.994 276.914 259.615 291.9 259.187C295.786 259.058 300.681 258.915 305.836 258.436H305.862C320.55 256.999 337.271 252.778 338.152 238.303C338.152 238.303 330.432 204.354 330.432 187.716C330.432 171.052 346.506 135.511 332.245 111.454C325.588 100.241 294.866 113.538 294.866 113.538C294.866 113.538 273.443 119.21 267.485 126.564C266.138 128.234 264.882 131.342 263.82 135.265C260.245 148.575 259.041 171.311 264.403 179.649C269.454 187.535 273.223 186.887 273.223 186.887Z" fill="url(#paint3_linear)"/>
<path d="M273.223 186.887C273.223 186.887 271.837 235.079 266.98 249.994C266.98 249.994 276.914 259.615 291.9 259.187C295.785 259.058 300.681 258.915 305.836 258.436C305.253 257.957 304.334 257.711 302.974 257.763C291.706 258.242 280.878 227.116 283.3 206.904C285.372 189.49 286.9 164.578 286.926 152.576C286.978 140.56 278.106 129.529 278.106 129.529L263.82 135.278C260.245 148.588 259.041 171.324 264.403 179.662C269.454 187.535 273.223 186.887 273.223 186.887Z" fill="#3A4983"/>
<path d="M269.169 152.032C269.169 152.032 290.605 145.947 280.917 130.888C275.062 121.786 230.404 84.8981 229.575 82.5287C226.933 74.9284 195.653 33.3145 195.653 33.3145C195.653 33.3145 187.947 26.9053 183.621 36.901C183.621 36.901 193.983 71.562 213.799 92.9646C218.242 97.7682 254.08 157.846 269.169 152.032Z" fill="url(#paint4_linear)"/>
<path d="M289.905 149.676C288.96 137.207 279.479 110.056 285.346 99.4902C285.411 99.3607 285.476 99.296 285.476 99.1536C286.421 97.4445 287.25 95.4764 287.872 93.2235C288.001 92.8221 288.144 92.3431 288.209 91.864C288.895 88.2516 288.688 85.0406 288.351 82.8006C288.001 81.0915 287.587 79.2529 286.991 77.3367C281.189 59.1322 289.853 41.8082 308.466 41.1349C327.155 40.4486 334.383 52.5159 334.383 52.5159C334.383 52.5159 334.512 52.6583 334.784 52.8655C338.527 55.1184 340.923 58.5236 342.154 62.6799C342.219 62.7446 342.283 62.8741 342.283 62.9518C344.537 67.9237 345.767 74.54 343.436 82.6582C337.854 101.95 332.932 120.155 331.986 132.623C331.028 145.105 338.734 194.475 317.869 196.792C296.938 199.11 284.66 201.764 285.411 184.79C285.476 183.974 285.476 183.158 285.54 182.407C286.564 167.336 290.786 161.536 289.905 149.676Z" fill="#282A55"/>
<path d="M35.0203 268.825L0 362.913C0 362.913 4.7114 364.702 7.79818 362.913L43.5399 281.09L114.646 286.185L150.602 379.231C150.602 379.231 156.289 382.947 161 379.231L125.193 274.265L35.0203 268.825Z" fill="url(#paint5_linear)"/>
<path d="M12.0221 226.544C14.0692 210.323 13.3218 149.329 12.9969 143.636C12.8214 140.506 12.2496 138.463 11.7687 137.252C8.21402 138.69 6.88183 141.117 6.77135 144.338C6.5569 150.409 8.07105 221.768 8.7209 235.218C9.37075 248.667 19.5539 265.585 32.9797 268.402C38.289 269.515 51.8319 272.306 68.1431 274.265C52.0203 265.936 29.8865 266.431 20.4182 257.555C15.3234 252.786 9.97511 242.766 12.0221 226.544Z" fill="url(#paint6_linear)"/>
<path d="M157.283 246.917C155.795 244.483 153.267 242.883 150.466 242.362C145.287 241.393 134.064 238.666 128.508 232.615C121.145 224.592 110.962 201.708 110.962 201.708C110.962 201.708 92.116 154.534 81.9329 140.434C71.7498 126.334 63.3018 130.023 59.8381 131.761C56.3744 133.498 42.7275 136.751 27.1312 135.879C19.8074 135.47 14.914 135.977 11.7688 137.252C12.2496 138.463 12.815 140.506 12.997 143.636C13.3219 149.329 14.0692 210.323 12.0222 226.544C9.97517 242.766 15.3234 252.786 20.4182 257.562C29.8865 266.437 52.0204 265.943 68.1431 274.271C93.0908 277.271 124.504 278.312 142.804 268.409C160.272 258.948 159.967 251.315 157.283 246.917Z" fill="url(#paint7_linear)"/>
<path d="M72.6206 240.644C72.6206 240.644 102.754 239.903 124.394 240.644C146.034 241.386 156.886 248.674 154.722 254.419C152.558 260.165 125.044 271.226 93.4223 270.79C61.7941 270.354 23.2386 254.523 26.7023 252.357C30.166 250.183 48.3618 243.247 72.6206 240.644Z" fill="url(#paint8_linear)"/>
<path d="M81.1856 283.791V275.573L71.3209 281.578L56.0494 401.302C56.0494 401.302 59.2987 400.814 60.2735 398.862L74.0307 294.644L81.1856 283.791Z" fill="url(#paint9_linear)"/>
<path d="M56.0494 401.302C56.0494 401.302 51.5525 400.652 51.364 397.886L66.7719 280.114L74.3622 274.954L81.1856 275.566L71.3209 281.572L56.0494 401.302Z" fill="url(#paint10_linear)"/>
<path d="M91.6742 284.545L94.9299 344.538C94.9299 344.538 91.5702 344.102 90.2705 342.696L86.4299 284.168L91.6742 284.545Z" fill="url(#paint11_linear)"/>
<path d="M94.9299 284.773L97.3149 343.23C97.3149 343.23 96.2751 344.791 94.9299 344.531L91.6742 284.539L94.9299 284.773Z" fill="url(#paint12_linear)"/>
</g>
<defs>
<linearGradient id="paint0_linear" x1="347.417" y1="343.507" x2="299.353" y2="343.507" gradientUnits="userSpaceOnUse">
<stop stop-color="#2A9D8F"/>
<stop offset="1" stop-color="#A6D3D1"/>
</linearGradient>
<linearGradient id="paint1_linear" x1="328.848" y1="351.642" x2="261.06" y2="351.642" gradientUnits="userSpaceOnUse">
<stop stop-color="#2A9D99"/>
<stop offset="1" stop-color="#A6D3D1"/>
</linearGradient>
<linearGradient id="paint2_linear" x1="313.717" y1="152.426" x2="343.997" y2="152.426" gradientUnits="userSpaceOnUse">
<stop stop-color="#3A4983"/>
<stop offset="1" stop-color="#282A55"/>
</linearGradient>
<linearGradient id="paint3_linear" x1="338.149" y1="183.071" x2="260.742" y2="183.071" gradientUnits="userSpaceOnUse">
<stop stop-color="#3A4983"/>
<stop offset="1" stop-color="#282A55"/>
</linearGradient>
<linearGradient id="paint4_linear" x1="192.783" y1="28.6071" x2="272.028" y2="151.559" gradientUnits="userSpaceOnUse">
<stop stop-color="#3A4983"/>
<stop offset="1" stop-color="#282A55"/>
</linearGradient>
<linearGradient id="paint5_linear" x1="0" y1="324.857" x2="161" y2="324.857" gradientUnits="userSpaceOnUse">
<stop stop-color="#DD9C69"/>
<stop offset="1" stop-color="#935523"/>
</linearGradient>
<linearGradient id="paint6_linear" x1="6.74822" y1="205.762" x2="68.1407" y2="205.762" gradientUnits="userSpaceOnUse">
<stop stop-color="#1E7167"/>
<stop offset="1" stop-color="#278E7F"/>
</linearGradient>
<linearGradient id="paint7_linear" x1="117.623" y1="250.802" x2="37.9392" y2="187.785" gradientUnits="userSpaceOnUse">
<stop stop-color="#228176"/>
<stop offset="1" stop-color="#30A799"/>
</linearGradient>
<linearGradient id="paint8_linear" x1="26.4801" y1="255.557" x2="154.99" y2="255.557" gradientUnits="userSpaceOnUse">
<stop stop-color="#228176"/>
<stop offset="1" stop-color="#2EB19C"/>
</linearGradient>
<linearGradient id="paint9_linear" x1="56.0494" y1="338.438" x2="81.1856" y2="338.438" gradientUnits="userSpaceOnUse">
<stop stop-color="#996D48"/>
<stop offset="1" stop-color="#784418"/>
</linearGradient>
<linearGradient id="paint10_linear" x1="51.3643" y1="338.131" x2="81.1856" y2="338.131" gradientUnits="userSpaceOnUse">
<stop stop-color="#DD9C69"/>
<stop offset="1" stop-color="#935523"/>
</linearGradient>
<linearGradient id="paint11_linear" x1="86.4299" y1="314.349" x2="94.932" y2="314.349" gradientUnits="userSpaceOnUse">
<stop stop-color="#DD9C69"/>
<stop offset="1" stop-color="#935523"/>
</linearGradient>
<linearGradient id="paint12_linear" x1="91.6765" y1="314.552" x2="97.3149" y2="314.552" gradientUnits="userSpaceOnUse">
<stop stop-color="#996D48"/>
<stop offset="1" stop-color="#784418"/>
</linearGradient>
<clipPath id="clip0">
<rect width="351" height="492" fill="white" transform="matrix(-1 0 0 1 351 0)"/>
</clipPath>
</defs>
</svg>
