<svg width="82" height="44" viewBox="0 0 82 44" fill="none" xmlns="http://www.w3.org/2000/svg">
<path d="M13.0381 20.6367H5.85254V28H1.39648V9.51562H13.7617V12.9561H5.85254V17.209H13.0381V20.6367ZM23.3213 26.5146C22.4157 27.6742 21.1927 28.2539 19.6523 28.2539C18.1458 28.2539 17.0033 27.818 16.2246 26.9463C15.4544 26.0661 15.0693 24.805 15.0693 23.1631V14.2637H19.3477V23.1885C19.3477 24.3649 19.9189 24.9531 21.0615 24.9531C22.0433 24.9531 22.7415 24.6019 23.1562 23.8994V14.2637H27.46V28H23.4482L23.3213 26.5146ZM38.124 18.1357L36.7148 18.0342C35.3691 18.0342 34.5059 18.4574 34.125 19.3037V28H29.8467V14.2637H33.8584L33.998 16.0283C34.7174 14.6826 35.7204 14.0098 37.0068 14.0098C37.4639 14.0098 37.8617 14.0605 38.2002 14.1621L38.124 18.1357ZM43.5957 14.2637L43.7354 15.876C44.6833 14.6318 45.9909 14.0098 47.6582 14.0098C49.0885 14.0098 50.1549 14.4372 50.8574 15.292C51.5684 16.1468 51.9365 17.4333 51.9619 19.1514V28H47.6709V19.3291C47.6709 18.6351 47.5312 18.1273 47.252 17.8057C46.9727 17.4756 46.4648 17.3105 45.7285 17.3105C44.8906 17.3105 44.2686 17.6406 43.8623 18.3008V28H39.584V14.2637H43.5957ZM58.8555 28H54.5645V14.2637H58.8555V28ZM54.3105 10.7217C54.3105 10.1123 54.5306 9.61296 54.9707 9.22363C55.4108 8.83431 55.9821 8.63965 56.6846 8.63965C57.387 8.63965 57.9583 8.83431 58.3984 9.22363C58.8385 9.61296 59.0586 10.1123 59.0586 10.7217C59.0586 11.3311 58.8385 11.8304 58.3984 12.2197C57.9583 12.609 57.387 12.8037 56.6846 12.8037C55.9821 12.8037 55.4108 12.609 54.9707 12.2197C54.5306 11.8304 54.3105 11.3311 54.3105 10.7217ZM68.1484 28.2539C66.041 28.2539 64.3356 27.6276 63.0322 26.375C61.7288 25.1139 61.0771 23.4762 61.0771 21.4619V21.1064C61.0771 19.7015 61.3353 18.4616 61.8516 17.3867C62.3763 16.3118 63.138 15.4824 64.1367 14.8984C65.1354 14.306 66.3203 14.0098 67.6914 14.0098C69.6211 14.0098 71.1445 14.6107 72.2617 15.8125C73.3789 17.0059 73.9375 18.6732 73.9375 20.8145V22.4775H65.4316C65.584 23.2477 65.9183 23.8529 66.4346 24.293C66.9508 24.7331 67.6195 24.9531 68.4404 24.9531C69.7946 24.9531 70.8525 24.4792 71.6143 23.5312L73.5693 25.8418C73.0361 26.5781 72.2786 27.1663 71.2969 27.6064C70.3236 28.0381 69.2741 28.2539 68.1484 28.2539ZM67.666 17.3105C66.4134 17.3105 65.6686 18.14 65.4316 19.7988H69.748V19.4688C69.765 18.7832 69.5915 18.2542 69.2275 17.8818C68.8636 17.501 68.3431 17.3105 67.666 17.3105Z" fill="#264653"/>
<circle cx="78.5" cy="24.5" r="3.5" fill="#E9C46A"/>
</svg>
