<svg width="46" height="12" viewBox="0 0 46 12" fill="none" xmlns="http://www.w3.org/2000/svg">
<path d="M3.0625 0.15625L5.98438 8.40625L8.89062 0.15625H11.9688V11.5312H9.61719V8.42188L9.85156 3.05469L6.78125 11.5312H5.17188L2.10938 3.0625L2.34375 8.42188V11.5312H0V0.15625H3.0625Z" fill="#264653"/>
<path d="M24.3594 6.10156C24.3594 7.22135 24.1615 8.20312 23.7656 9.04688C23.3698 9.89062 22.8021 10.5417 22.0625 11C21.3281 11.4583 20.4844 11.6875 19.5312 11.6875C18.5885 11.6875 17.7474 11.4609 17.0078 11.0078C16.2682 10.5547 15.6953 9.90885 15.2891 9.07031C14.8828 8.22656 14.6771 7.25781 14.6719 6.16406V5.60156C14.6719 4.48177 14.8724 3.4974 15.2734 2.64844C15.6797 1.79427 16.25 1.14062 16.9844 0.6875C17.724 0.229167 18.5677 0 19.5156 0C20.4635 0 21.3047 0.229167 22.0391 0.6875C22.7786 1.14062 23.349 1.79427 23.75 2.64844C24.1562 3.4974 24.3594 4.47917 24.3594 5.59375V6.10156ZM21.9844 5.58594C21.9844 4.39323 21.7708 3.48698 21.3438 2.86719C20.9167 2.2474 20.3073 1.9375 19.5156 1.9375C18.7292 1.9375 18.1224 2.24479 17.6953 2.85938C17.2682 3.46875 17.0521 4.36458 17.0469 5.54688V6.10156C17.0469 7.26302 17.2604 8.16406 17.6875 8.80469C18.1146 9.44531 18.7292 9.76562 19.5312 9.76562C20.3177 9.76562 20.9219 9.45833 21.3438 8.84375C21.7656 8.22396 21.9792 7.32292 21.9844 6.14062V5.58594Z" fill="#264653"/>
<path d="M31.2734 7.36719H29.4062V11.5312H27.0625V0.15625H31.2891C32.6328 0.15625 33.6693 0.455729 34.3984 1.05469C35.1276 1.65365 35.4922 2.5 35.4922 3.59375C35.4922 4.36979 35.3229 5.01823 34.9844 5.53906C34.651 6.05469 34.1432 6.46615 33.4609 6.77344L35.9219 11.4219V11.5312H33.4062L31.2734 7.36719ZM29.4062 5.46875H31.2969C31.8854 5.46875 32.3411 5.32031 32.6641 5.02344C32.987 4.72135 33.1484 4.30729 33.1484 3.78125C33.1484 3.24479 32.9948 2.82292 32.6875 2.51562C32.3854 2.20833 31.9193 2.05469 31.2891 2.05469H29.4062V5.46875Z" fill="#264653"/>
<path d="M45.125 6.60156H40.625V9.64844H45.9062V11.5312H38.2812V0.15625H45.8906V2.05469H40.625V4.76562H45.125V6.60156Z" fill="#264653"/>
</svg>
