<svg width="676" height="385" viewBox="0 0 676 385" fill="none" xmlns="http://www.w3.org/2000/svg">
<g clip-path="url(#clip0)">
<path d="M675.18 0H574.84V137.13H675.18V0Z" fill="#E0E0E0"/>
<path d="M671.64 3.75H578.33V133.53H671.64V3.75Z" fill="#FAFAFA"/>
<path d="M640.2 34.13H609.76V108.47H640.2V34.13Z" fill="#E9CB6A"/>
<path d="M72.73 383.48C96.29 372.04 105.47 345.32 108.57 320.47C109.09 316.32 110.23 312.05 108.85 308.11C107.46 304.18 103.28 300.98 99.31 302.13C96.02 303.08 94.11 306.44 91.93 309.11C89.03 312.67 85.11 315.37 80.78 316.81C77.94 317.75 74.55 318.07 72.19 316.23C68.94 313.7 69.31 308.72 69.99 304.62C71.26 296.98 72.52 289.34 73.78 281.7C74.46 277.6 75.14 273.41 74.48 269.32C73.82 265.22 71.58 261.16 67.85 259.44C64.12 257.73 58.94 259.21 57.47 263.09C56.86 264.71 56.93 266.5 56.54 268.18C56.15 269.87 55.06 271.62 53.37 271.84C51.66 272.06 50.2 270.64 49.16 269.24C45.58 264.42 43.56 258.63 41.72 252.9C39.88 247.17 38.14 241.32 35.01 236.19C31.89 231.06 27.14 226.63 21.32 225.37C15.5 224.1 8.65999 226.73 6.25999 232.26C3.84999 237.81 6.28999 244.21 9.21999 249.48C13.56 257.29 19.03 264.46 25.4 270.69C26.55 271.81 27.79 273.03 28.04 274.63C28.5 277.51 25.47 279.81 22.63 280.28C19.41 280.81 16.14 279.97 12.88 279.83C9.61999 279.7 5.92999 280.56 4.23999 283.39C1.88999 287.32 4.69999 292.27 7.68999 295.7C13.68 302.57 20.85 308.37 28.78 312.8C31.62 314.38 34.64 315.86 36.74 318.37C38.84 320.88 39.72 324.8 37.79 327.45C35.86 330.11 31.94 330.43 28.87 329.34C25.8 328.25 23.25 326.08 20.41 324.47C15.11 321.44 7.76999 320.67 3.37999 324.97C0.499986 327.8 -0.420014 332.22 0.169986 336.23C0.759986 340.24 2.66999 343.92 4.77999 347.36C12.13 359.4 22.34 369.78 34.7 376.39C47.05 383.01 58.98 386.17 72.73 383.48Z" fill="#EBEBEB"/>
<path d="M69.39 384.8C70.05 374.87 70.49 380.02 68.82 366.98C67.17 353.93 64.17 339.77 60.53 325.08C59.61 321.41 58.69 317.78 57.79 314.21C56.88 310.64 55.98 307.11 54.89 303.7C52.73 296.88 50.14 290.49 47.49 284.49C44.84 278.49 42.11 272.9 39.51 267.69C36.9 262.48 34.38 257.68 31.9 253.39C26.96 244.8 22.16 238.36 18.68 234.07C16.95 231.92 15.55 230.29 14.59 229.21C14.13 228.69 13.76 228.29 13.49 227.98C13.24 227.71 13.1 227.57 13.09 227.58C13.08 227.59 13.19 227.74 13.43 228.03C13.69 228.35 14.04 228.77 14.48 229.31C15.4 230.43 16.76 232.08 18.46 234.26C21.86 238.6 26.57 245.07 31.44 253.67C33.89 257.96 36.37 262.77 38.95 267.98C41.52 273.2 44.23 278.79 46.85 284.78C49.48 290.76 52.05 297.14 54.18 303.93C55.26 307.32 56.15 310.82 57.06 314.4C57.96 317.97 58.87 321.6 59.79 325.27C63.43 339.96 66.44 354.07 68.13 367.08C69.84 380.08 69.45 374.88 68.86 384.78" fill="#E0E0E0"/>
<path d="M54.67 303.63C54.72 303.65 54.96 303.05 55.35 301.94C55.75 300.84 56.27 299.23 56.88 297.23C58.11 293.24 59.62 287.67 61.26 281.52C62.9 275.37 64.49 269.83 65.78 265.87C66.42 263.89 66.95 262.29 67.33 261.19C67.71 260.09 67.89 259.47 67.84 259.45C67.79 259.43 67.51 260.01 67.05 261.09C66.58 262.16 65.97 263.74 65.26 265.71C63.84 269.64 62.16 275.18 60.52 281.33C58.91 287.4 57.46 292.9 56.35 297.09C55.84 298.98 55.4 300.58 55.06 301.86C54.77 302.98 54.62 303.61 54.67 303.63Z" fill="#E0E0E0"/>
<path d="M3.49 285.37C3.48 285.42 4.22 285.63 5.55 285.96C6.88 286.3 8.82 286.77 11.19 287.44C15.94 288.73 22.44 290.74 29.51 293.28C36.58 295.83 42.88 298.4 47.38 300.4C49.64 301.38 51.45 302.23 52.7 302.8C53.95 303.38 54.65 303.68 54.68 303.63C54.7 303.58 54.05 303.19 52.83 302.53C51.62 301.87 49.84 300.95 47.6 299.9C43.14 297.77 36.85 295.11 29.77 292.55C22.68 290.01 16.13 288.07 11.33 286.91C8.94 286.31 6.98 285.92 5.62 285.67C4.26 285.43 3.51 285.32 3.49 285.37Z" fill="#E0E0E0"/>
<path d="M68.32 365.9C68.34 365.91 68.5 365.71 68.78 365.31C69.11 364.83 69.5 364.25 69.99 363.55C71.03 362.01 72.48 359.75 74.23 356.93C77.74 351.29 82.34 343.35 87.29 334.52C92.25 325.69 96.77 317.71 100.15 312.01C101.8 309.24 103.17 306.96 104.18 305.27C104.61 304.53 104.97 303.93 105.27 303.43C105.51 303.01 105.63 302.78 105.6 302.76C105.58 302.75 105.42 302.95 105.14 303.35C104.81 303.83 104.42 304.41 103.93 305.11C102.89 306.65 101.44 308.91 99.69 311.73C96.18 317.37 91.58 325.31 86.63 334.14C81.67 342.97 77.15 350.94 73.77 356.65C72.11 359.42 70.75 361.7 69.74 363.39C69.31 364.13 68.95 364.73 68.65 365.23C68.42 365.65 68.3 365.88 68.32 365.9Z" fill="#E0E0E0"/>
<path d="M1.82 332.15C1.81 332.17 2.03 332.31 2.47 332.55C2.99 332.82 3.63 333.15 4.4 333.56C6.18 334.47 8.59 335.7 11.52 337.19C17.53 340.25 25.78 344.58 34.9 349.37C44.02 354.17 52.32 358.42 58.39 361.36C61.43 362.83 63.9 364 65.62 364.77C66.42 365.12 67.08 365.41 67.61 365.65C68.07 365.84 68.32 365.93 68.33 365.91C68.34 365.89 68.12 365.75 67.68 365.51C67.16 365.24 66.53 364.91 65.75 364.51C63.97 363.6 61.56 362.38 58.63 360.88C52.62 357.82 44.37 353.49 35.25 348.69C26.14 343.9 17.84 339.64 11.76 336.7C8.72 335.23 6.25 334.06 4.53 333.29C3.73 332.94 3.08 332.65 2.54 332.41C2.08 332.22 1.84 332.13 1.82 332.15Z" fill="#E0E0E0"/>
<path d="M95.28 84.69H16.04V162.54H95.28V84.69Z" fill="#E0E0E0"/>
<path d="M92.48 86.82H18.8V160.5H92.48V86.82Z" fill="#FAFAFA"/>
<path d="M67.66 111.64H43.62V135.68H67.66V111.64Z" fill="#E0E0E0"/>
<path d="M651.58 384.56C651.58 384.7 512.03 384.82 339.93 384.82C167.77 384.82 28.25 384.7 28.25 384.56C28.25 384.42 167.77 384.3 339.93 384.3C512.03 384.3 651.58 384.42 651.58 384.56Z" fill="#263238"/>
<path d="M542.22 27.4H137.61C130.63 27.4 124.98 33.05 124.98 40.03V325.82C124.98 332.8 130.63 338.45 137.61 338.45H292.9C292.9 338.45 302.78 369 272.16 384.8H417.36C417.36 384.8 382.79 372.95 391.68 338.45H542.23C549.2 338.45 554.86 332.8 554.86 325.82V40.03C554.85 33.05 549.2 27.4 542.22 27.4Z" fill="#455A64"/>
<path d="M345.32 308.39C350.82 316.26 342.21 324.87 334.34 319.37C334.08 319.19 333.84 318.95 333.66 318.69C328.17 310.83 336.77 302.22 344.64 307.71C344.9 307.89 345.14 308.13 345.32 308.39Z" fill="#263238"/>
<path d="M541.61 288.18H137.38C135.57 288.18 134.11 286.71 134.11 284.91V47.8C134.11 45.99 135.58 44.53 137.38 44.53H541.6C543.41 44.53 544.87 46 544.87 47.8V284.91C544.88 286.72 543.42 288.18 541.61 288.18Z" fill="#FAFAFA"/>
<path d="M541.61 288.68H137.38C135.3 288.68 133.61 286.99 133.61 284.91V47.8C133.61 45.72 135.3 44.03 137.38 44.03H541.6C543.68 44.03 545.37 45.72 545.37 47.8V284.91C545.38 286.99 543.69 288.68 541.61 288.68ZM137.38 45.03C135.85 45.03 134.61 46.27 134.61 47.8V284.91C134.61 286.44 135.85 287.68 137.38 287.68H541.6C543.13 287.68 544.37 286.44 544.37 284.91V47.8C544.37 46.27 543.13 45.03 541.6 45.03H137.38Z" fill="white"/>
<path d="M167.8 53.94C167.8 55.75 166.33 57.22 164.52 57.22C162.71 57.22 161.24 55.75 161.24 53.94C161.24 52.13 162.71 50.66 164.52 50.66C166.33 50.66 167.8 52.13 167.8 53.94Z" fill="#455A64"/>
<path d="M147.92 53.94C147.92 55.75 146.45 57.22 144.64 57.22C142.83 57.22 141.36 55.75 141.36 53.94C141.36 52.13 142.83 50.66 144.64 50.66C146.45 50.66 147.92 52.13 147.92 53.94Z" fill="#455A64"/>
<path d="M157.46 53.94C157.46 55.75 155.99 57.22 154.18 57.22C152.37 57.22 150.9 55.75 150.9 53.94C150.9 52.13 152.37 50.66 154.18 50.66C155.99 50.66 157.46 52.13 157.46 53.94Z" fill="#455A64"/>
<path d="M545.18 63.79C545.18 63.93 453.09 64.05 339.51 64.05C225.89 64.05 133.82 63.93 133.82 63.79C133.82 63.65 225.89 63.53 339.51 63.53C453.08 63.53 545.18 63.65 545.18 63.79Z" fill="#263238"/>
<path d="M522.636 85.682L448.426 85.8185L448.535 145.148L522.745 145.012L522.636 85.682Z" fill="#F5F5F5"/>
<path d="M519.993 89.4169L450.993 89.5437L451.088 141.404L520.088 141.277L519.993 89.4169Z" fill="#EBEBEB"/>
<path d="M451.09 141.41L475.13 109.13L490.09 129.27L500.2 118.47L520.09 141.28L451.09 141.41Z" fill="#E0E0E0"/>
<path d="M496.39 105.14C496.4 108.14 493.97 110.58 490.97 110.58C487.97 110.59 485.53 108.16 485.53 105.16C485.52 102.16 487.95 99.7201 490.95 99.7201C493.94 99.7101 496.38 102.14 496.39 105.14Z" fill="#E0E0E0"/>
<path d="M522.636 212.702L448.426 212.839L448.535 272.169L522.745 272.032L522.636 212.702Z" fill="#F5F5F5"/>
<path d="M519.993 216.447L450.993 216.574L451.088 268.434L520.088 268.307L519.993 216.447Z" fill="#EBEBEB"/>
<path d="M451.09 268.43L475.13 236.15L490.09 256.29L500.2 245.49L520.09 268.31L451.09 268.43Z" fill="#E0E0E0"/>
<path d="M496.39 232.17C496.4 235.17 493.97 237.61 490.97 237.61C487.97 237.62 485.53 235.19 485.53 232.19C485.52 229.19 487.95 226.75 490.95 226.75C493.94 226.74 496.38 229.16 496.39 232.17Z" fill="#E0E0E0"/>
<path d="M225.116 85.682L150.906 85.8184L151.015 145.148L225.225 145.012L225.116 85.682Z" fill="#F5F5F5"/>
<path d="M222.463 89.4168L153.463 89.5436L153.558 141.404L222.558 141.277L222.463 89.4168Z" fill="#EBEBEB"/>
<path d="M153.56 141.41L177.6 109.13L192.57 129.27L202.67 118.47L222.56 141.28L153.56 141.41Z" fill="#E0E0E0"/>
<path d="M198.86 105.14C198.87 108.14 196.44 110.58 193.44 110.58C190.44 110.59 188 108.16 188 105.16C187.99 102.16 190.42 99.72 193.42 99.72C196.42 99.71 198.85 102.14 198.86 105.14Z" fill="#E0E0E0"/>
<path d="M225.116 149.622L150.906 149.759L151.015 209.089L225.225 208.952L225.116 149.622Z" fill="#F5F5F5"/>
<path d="M222.463 153.357L153.463 153.484L153.558 205.344L222.558 205.217L222.463 153.357Z" fill="#EBEBEB"/>
<path d="M153.56 205.35L177.6 173.07L192.57 193.21L202.67 182.41L222.56 205.22L153.56 205.35Z" fill="#E0E0E0"/>
<path d="M198.86 169.08C198.87 172.08 196.44 174.52 193.44 174.52C190.44 174.53 188 172.1 188 169.1C187.99 166.1 190.42 163.66 193.42 163.66C196.42 163.65 198.85 166.08 198.86 169.08Z" fill="#E0E0E0"/>
<path d="M225.116 214.142L150.906 214.279L151.015 273.609L225.225 273.472L225.116 214.142Z" fill="#F5F5F5"/>
<path d="M222.463 217.877L153.463 218.004L153.558 269.864L222.558 269.737L222.463 217.877Z" fill="#EBEBEB"/>
<path d="M153.56 269.86L177.6 237.58L192.57 257.73L202.67 246.92L222.56 269.74L153.56 269.86Z" fill="#E0E0E0"/>
<path d="M198.86 233.6C198.87 236.6 196.44 239.04 193.44 239.04C190.44 239.05 188 236.62 188 233.62C187.99 230.62 190.42 228.18 193.42 228.18C196.42 228.17 198.85 230.6 198.86 233.6Z" fill="#E0E0E0"/>
<path d="M533.77 144.01C533.77 144.01 526.88 142.44 520.88 148.46C515.65 153.71 493.86 172.88 493.86 172.88L462.28 166.56L457.92 180.66C457.92 180.66 495.22 192.26 497.94 191.27C500.66 190.28 520.88 176.57 520.88 176.57L533.77 144.01Z" fill="#E76F51"/>
<path d="M502.008 95.3362L349.975 115.988L366.485 237.532L518.518 216.88L502.008 95.3362Z" fill="#EBEBEB"/>
<path d="M502.01 95.34C502.01 95.34 501.76 95.38 501.28 95.45C500.79 95.52 500.08 95.62 499.16 95.75C497.28 96.01 494.52 96.4 490.92 96.9C483.71 97.9 473.18 99.35 459.82 101.2C433.12 104.86 395.16 110.06 350.02 116.25L350.25 115.95C355.17 152.12 360.82 193.59 366.79 237.48V237.49L366.46 237.24C422.75 229.61 475.06 222.53 518.5 216.64L518.29 216.92C513.37 180.29 509.29 149.93 506.44 128.71C505.03 118.09 503.92 109.76 503.16 104.08C502.79 101.24 502.5 99.07 502.31 97.59C502.09 96.12 502.01 95.34 502.01 95.34C502.01 95.34 502.13 96.07 502.33 97.53C502.54 99 502.84 101.15 503.23 103.97C504.01 109.64 505.16 117.94 506.63 128.53C509.55 149.78 513.72 180.18 518.76 216.86L518.79 217.11L518.54 217.14C475.11 223.05 422.8 230.18 366.52 237.84L366.22 237.88L366.18 237.58V237.57C360.23 193.68 354.61 152.21 349.7 116.03L349.66 115.77L349.92 115.73C395.14 109.64 433.18 104.52 459.93 100.92C473.27 99.14 483.79 97.73 490.99 96.77C494.57 96.3 497.32 95.93 499.19 95.69C500.11 95.57 500.81 95.48 501.29 95.42C501.77 95.36 502.01 95.34 502.01 95.34Z" fill="#263238"/>
<path d="M497.606 103.721L356.254 122.922L370.686 229.166L512.038 209.966L497.606 103.721Z" fill="#E9CB6A"/>
<path d="M370.68 229.17L411.09 156.43L447.28 193.59L465.02 168.69L512.04 209.97L370.68 229.17Z" fill="#F4A261"/>
<path d="M453.55 142.42C454.38 148.57 450.08 154.23 443.93 155.06C437.78 155.89 432.12 151.59 431.29 145.44C430.46 139.29 434.76 133.63 440.91 132.8C447.06 131.97 452.72 136.27 453.55 142.42Z" fill="#F4A261"/>
<path d="M569.66 159.77C571.09 149.89 566.5 146.81 559.29 143.83C550.28 140.1 533.13 141.95 527.34 147.18L520.7 166.69C517.93 169.92 518.37 174.86 519.97 178.81C521.57 182.76 524.15 186.3 525.34 190.38C527.65 198.28 526.03 205.27 525.48 213.49C525.35 215.39 523.89 218.89 525.3 220.17C526.59 221.35 528.53 221.39 530.27 221.32C544.02 220.77 557.64 217.32 569.99 211.26C565.29 201.76 560.09 190.77 563.12 183.49C565.81 177.04 568.36 168.73 569.66 159.77Z" fill="#E76F51"/>
<path d="M507.37 180L502.92 195.18C502.92 195.18 526.21 203.65 538.82 203.5C550.64 203.35 554.02 202.02 558.18 192.47C562.34 182.93 567.06 171.96 568.05 165.65C568.05 165.65 569.06 162.87 569.55 159.21C571.28 146.26 555.52 142.85 553.22 155.71L551.34 162.6C551.34 162.6 547.05 172.3 546.84 172.84C544.94 177.87 541.66 185.93 539.28 186.82C536.9 187.71 507.37 180 507.37 180Z" fill="#E76F51"/>
<path d="M564.25 180.66C564.26 180.66 564.22 180.79 564.13 181.02C564.03 181.28 563.89 181.62 563.72 182.06C563.35 182.97 562.8 184.3 561.99 185.98C561.18 187.66 560.14 189.69 558.71 191.93C557.28 194.16 555.49 196.63 553.03 198.92C552.45 199.53 551.72 200 551.05 200.57C550.34 201.09 549.56 201.54 548.77 202.01C548.35 202.2 547.92 202.39 547.5 202.58C547.28 202.67 547.07 202.78 546.85 202.87L546.16 203.06C545.7 203.19 545.23 203.32 544.76 203.45C544.28 203.51 543.79 203.57 543.29 203.62C539.33 204 535.12 203.46 530.75 202.73C522.02 201.19 512.6 198.63 502.85 195.43L502.61 195.35L502.68 195.11C502.86 194.5 503.05 193.85 503.24 193.19C504.57 188.65 505.88 184.2 507.13 179.93L507.2 179.69L507.44 179.75C515.96 182.03 524.01 184.02 531.35 185.35C533.18 185.67 534.98 185.96 536.72 186.09C537.59 186.16 538.46 186.19 539.26 186.09C539.47 186.08 539.65 186.01 539.83 185.96C540 185.88 540.12 185.83 540.24 185.64C540.48 185.32 540.71 184.99 540.91 184.63C542.55 181.8 543.8 179.01 545 176.51C547.34 171.48 549.13 167.42 550.38 164.63C550.99 163.26 551.47 162.18 551.81 161.43C551.97 161.08 552.09 160.81 552.19 160.6C552.28 160.42 552.33 160.32 552.33 160.33C552.34 160.33 552.3 160.43 552.23 160.62C552.15 160.83 552.03 161.11 551.89 161.46C551.57 162.22 551.12 163.31 550.54 164.7C549.35 167.51 547.6 171.6 545.3 176.65C544.12 179.16 542.89 181.95 541.25 184.83C541.05 185.19 540.82 185.55 540.55 185.9C540.46 186.07 540.2 186.25 539.99 186.34C539.77 186.41 539.55 186.49 539.33 186.5C538.45 186.62 537.57 186.59 536.69 186.52C534.92 186.39 533.12 186.11 531.28 185.8C523.91 184.49 515.85 182.52 507.31 180.25L507.62 180.08C506.37 184.35 505.07 188.8 503.74 193.34C503.55 194 503.36 194.65 503.18 195.26L503.01 194.94C512.73 198.13 522.14 200.7 530.82 202.26C535.16 203 539.35 203.55 543.23 203.19C543.71 203.14 544.19 203.08 544.66 203.03C545.12 202.9 545.57 202.78 546.02 202.66L546.69 202.48C546.91 202.4 547.11 202.3 547.32 202.21C547.74 202.02 548.15 201.84 548.56 201.66C549.34 201.21 550.1 200.77 550.8 200.26C551.47 199.71 552.19 199.25 552.76 198.65C555.2 196.41 557 193.97 558.45 191.77C559.9 189.56 560.96 187.55 561.79 185.89C562.62 184.23 563.21 182.91 563.6 182.02C563.79 181.59 563.94 181.26 564.05 181C564.18 180.77 564.24 180.66 564.25 180.66Z" fill="#263238"/>
<path d="M524.2 163C524.27 163.04 523.6 164.07 522.58 165.76C521.6 167.44 520.18 169.84 519.71 172.76C519.21 175.7 520.2 178.35 520.95 180.13C521.73 181.93 522.29 183.03 522.21 183.06C522.18 183.08 522 182.82 521.72 182.35C521.44 181.87 521.04 181.18 520.61 180.28C520.18 179.38 519.71 178.28 519.39 176.99C519.06 175.7 518.95 174.2 519.19 172.68C519.69 169.61 521.19 167.2 522.26 165.56C523.37 163.91 524.15 162.96 524.2 163Z" fill="#263238"/>
<g opacity="0.2">
<g opacity="0.2">
<path opacity="0.2" d="M526.26 201.72C526.16 203.45 527.01 205.14 528.27 206.33C529.53 207.52 531.15 208.26 532.81 208.74C538.03 210.27 543.86 209.44 548.51 206.61C553.15 203.78 556.31 198.64 557.59 193.36C557.59 193.36 554.66 197.05 552.73 198.97C550.16 201.53 547.37 202.75 543.74 203.26C537.87 204.09 531.93 202.9 526.13 201.72" fill="black"/>
</g>
</g>
<path d="M524.45 148.79C524.47 148.76 525.06 149.05 526.08 149.57C527.23 150.18 528.61 150.9 530.17 151.71L530.54 151.9L530.18 152.13C529.3 152.71 528.34 153.33 527.35 153.97C526.43 154.56 525.54 155.12 524.72 155.65L524.34 155.89V155.45C524.32 153.51 524.32 151.84 524.34 150.65C524.35 149.49 524.39 148.79 524.45 148.79C524.51 148.79 524.57 149.48 524.64 150.66C524.71 151.84 524.77 153.51 524.82 155.45L524.43 155.25C525.25 154.71 526.14 154.14 527.06 153.54C528.06 152.9 529.02 152.29 529.92 151.71L529.93 152.13C526.65 150.32 524.36 148.93 524.45 148.79Z" fill="#FAFAFA"/>
<path d="M513.32 158.7C513.34 158.67 513.93 158.96 514.95 159.48C516.1 160.09 517.48 160.81 519.04 161.62L519.41 161.81L519.05 162.04C518.17 162.62 517.21 163.24 516.22 163.88C515.3 164.47 514.41 165.03 513.59 165.56L513.21 165.8V165.36C513.19 163.42 513.19 161.75 513.21 160.57C513.23 159.4 513.27 158.7 513.32 158.7C513.38 158.7 513.44 159.39 513.51 160.57C513.58 161.75 513.64 163.42 513.69 165.36L513.3 165.16C514.12 164.62 515.01 164.05 515.93 163.45C516.93 162.81 517.89 162.2 518.79 161.62L518.8 162.04C515.53 160.22 513.24 158.83 513.32 158.7Z" fill="#FAFAFA"/>
<path d="M543.08 162.08C543.04 162.07 543.1 161.41 543.2 160.28C543.33 158.98 543.49 157.44 543.67 155.69L543.71 155.28L544.06 155.52C544.92 156.13 545.85 156.78 546.82 157.46C547.71 158.1 548.56 158.71 549.36 159.28L549.73 159.54L549.32 159.71C547.52 160.45 545.97 161.07 544.87 161.49C543.76 161.91 543.1 162.13 543.08 162.08C543.06 162.03 543.68 161.71 544.75 161.21C545.82 160.71 547.35 160.03 549.13 159.26L549.09 159.69C548.29 159.12 547.42 158.52 546.52 157.89C545.55 157.2 544.63 156.53 543.76 155.92L544.15 155.75C543.67 159.47 543.23 162.1 543.08 162.08Z" fill="#FAFAFA"/>
<path d="M523.44 173.77C523.42 173.74 523.84 173.24 524.58 172.37C525.44 171.39 526.47 170.23 527.63 168.91L527.9 168.6L528.04 169C528.39 170 528.77 171.07 529.16 172.18C529.51 173.21 529.85 174.21 530.17 175.14L530.32 175.57L529.89 175.47C528 175.03 526.38 174.63 525.23 174.33C524.08 174.03 523.42 173.82 523.44 173.77C523.45 173.71 524.14 173.81 525.31 174.03C526.47 174.25 528.11 174.58 530.01 174.99L529.73 175.32C529.4 174.39 529.05 173.4 528.69 172.36C528.31 171.23 527.94 170.15 527.59 169.15L528 169.24C525.44 171.99 523.55 173.88 523.44 173.77Z" fill="#FAFAFA"/>
<path d="M538.79 175.33C538.75 175.32 538.81 174.66 538.91 173.53C539.04 172.23 539.2 170.69 539.38 168.94L539.42 168.53L539.77 168.77C540.63 169.38 541.56 170.03 542.53 170.71C543.42 171.35 544.27 171.96 545.07 172.53L545.44 172.79L545.03 172.96C543.23 173.7 541.68 174.32 540.58 174.74C539.47 175.16 538.81 175.38 538.79 175.33C538.77 175.28 539.39 174.96 540.46 174.46C541.53 173.96 543.06 173.28 544.84 172.51L544.8 172.94C544 172.37 543.13 171.77 542.23 171.14C541.26 170.45 540.34 169.78 539.47 169.17L539.86 169C539.39 172.72 538.94 175.36 538.79 175.33Z" fill="#FAFAFA"/>
<path d="M533.33 184.7C533.29 184.69 533.35 184.03 533.45 182.9C533.58 181.6 533.74 180.06 533.92 178.31L533.96 177.9L534.31 178.14C535.17 178.75 536.1 179.4 537.07 180.08C537.96 180.72 538.81 181.33 539.61 181.9L539.98 182.16L539.57 182.33C537.77 183.07 536.22 183.69 535.12 184.11C534.02 184.53 533.35 184.75 533.33 184.7C533.31 184.65 533.93 184.33 535 183.83C536.07 183.33 537.6 182.65 539.38 181.88L539.34 182.31C538.54 181.74 537.67 181.14 536.77 180.51C535.8 179.82 534.88 179.15 534.01 178.54L534.4 178.37C533.93 182.08 533.49 184.72 533.33 184.7Z" fill="#FAFAFA"/>
<path d="M544.66 216.18C544.62 216.17 544.68 215.51 544.78 214.38C544.91 213.08 545.07 211.54 545.25 209.79L545.29 209.38L545.64 209.62C546.5 210.23 547.43 210.88 548.4 211.56C549.29 212.2 550.14 212.81 550.94 213.38L551.31 213.64L550.9 213.81C549.1 214.55 547.55 215.17 546.45 215.59C545.35 216.01 544.69 216.24 544.66 216.18C544.64 216.13 545.26 215.81 546.33 215.31C547.4 214.81 548.93 214.13 550.71 213.36L550.67 213.79C549.87 213.22 549 212.62 548.1 211.99C547.13 211.3 546.21 210.63 545.34 210.02L545.73 209.85C545.26 213.57 544.82 216.21 544.66 216.18Z" fill="#FAFAFA"/>
<path d="M554.52 153.97C554.48 153.96 554.54 153.3 554.64 152.17C554.77 150.87 554.93 149.33 555.11 147.58L555.15 147.17L555.5 147.41C556.36 148.02 557.29 148.67 558.26 149.35C559.15 149.99 560 150.6 560.8 151.17L561.17 151.43L560.76 151.6C558.96 152.34 557.41 152.96 556.31 153.38C555.2 153.8 554.54 154.02 554.52 153.97C554.5 153.92 555.12 153.6 556.19 153.1C557.26 152.6 558.79 151.92 560.57 151.15L560.53 151.58C559.73 151.01 558.86 150.41 557.96 149.78C556.99 149.09 556.07 148.42 555.2 147.81L555.59 147.64C555.12 151.36 554.67 154 554.52 153.97Z" fill="#FAFAFA"/>
<path d="M529.95 165C529.91 164.99 529.97 164.33 530.07 163.2C530.2 161.9 530.36 160.36 530.54 158.61L530.58 158.2L530.93 158.44C531.79 159.05 532.72 159.7 533.69 160.38C534.58 161.02 535.43 161.63 536.23 162.2L536.6 162.46L536.19 162.63C534.39 163.37 532.84 163.99 531.74 164.41C530.63 164.83 529.97 165.05 529.95 165C529.93 164.95 530.55 164.63 531.62 164.13C532.69 163.63 534.22 162.95 536 162.18L535.96 162.61C535.16 162.04 534.29 161.44 533.39 160.81C532.42 160.12 531.5 159.45 530.63 158.84L531.02 158.67C530.54 162.39 530.1 165.03 529.95 165Z" fill="#FAFAFA"/>
<path d="M531.34 213.59C531.3 213.58 531.36 212.92 531.46 211.79C531.59 210.49 531.75 208.95 531.93 207.2L531.97 206.79L532.32 207.03C533.18 207.64 534.11 208.29 535.08 208.97C535.97 209.61 536.82 210.22 537.62 210.79L537.99 211.05L537.58 211.22C535.78 211.96 534.23 212.58 533.13 213C532.02 213.42 531.36 213.64 531.34 213.59C531.32 213.54 531.94 213.22 533.01 212.72C534.08 212.22 535.61 211.54 537.39 210.77L537.35 211.2C536.55 210.63 535.68 210.03 534.78 209.4C533.81 208.71 532.89 208.04 532.02 207.43L532.41 207.26C531.94 210.98 531.49 213.61 531.34 213.59Z" fill="#FAFAFA"/>
<path d="M557.67 172.97C557.63 172.96 557.69 172.3 557.79 171.17C557.92 169.87 558.08 168.33 558.26 166.58L558.3 166.17L558.65 166.41C559.51 167.02 560.44 167.67 561.41 168.35C562.3 168.99 563.15 169.6 563.95 170.17L564.32 170.43L563.91 170.6C562.11 171.34 560.56 171.96 559.46 172.38C558.35 172.8 557.69 173.02 557.67 172.97C557.65 172.92 558.27 172.6 559.34 172.1C560.41 171.6 561.94 170.92 563.72 170.15L563.68 170.58C562.88 170.01 562.01 169.41 561.11 168.78C560.14 168.09 559.22 167.42 558.35 166.81L558.74 166.64C558.27 170.36 557.83 173 557.67 172.97Z" fill="#FAFAFA"/>
<path d="M546.27 195.61C546.23 195.6 546.29 194.94 546.39 193.81C546.52 192.51 546.68 190.97 546.86 189.22L546.9 188.81L547.25 189.05C548.11 189.66 549.04 190.31 550.01 190.99C550.9 191.63 551.75 192.24 552.55 192.81L552.92 193.07L552.51 193.24C550.71 193.98 549.16 194.6 548.06 195.02C546.95 195.44 546.29 195.66 546.27 195.61C546.25 195.56 546.87 195.24 547.94 194.74C549.01 194.24 550.54 193.56 552.32 192.79L552.28 193.22C551.48 192.65 550.61 192.05 549.71 191.42C548.74 190.73 547.82 190.06 546.95 189.45L547.34 189.28C546.86 193 546.42 195.64 546.27 195.61Z" fill="#FAFAFA"/>
<path d="M555.78 206.1C555.74 206.09 555.8 205.43 555.9 204.3C556.03 203 556.19 201.46 556.37 199.71L556.41 199.3L556.76 199.54C557.62 200.15 558.55 200.8 559.52 201.48C560.41 202.12 561.26 202.73 562.06 203.3L562.43 203.56L562.02 203.73C560.22 204.47 558.67 205.09 557.57 205.51C556.47 205.93 555.81 206.15 555.78 206.1C555.76 206.05 556.38 205.73 557.45 205.23C558.52 204.73 560.05 204.05 561.83 203.28L561.79 203.71C560.99 203.14 560.12 202.54 559.22 201.91C558.25 201.22 557.33 200.55 556.46 199.94L556.85 199.77C556.38 203.49 555.94 206.13 555.78 206.1Z" fill="#FAFAFA"/>
<path d="M549.27 184.1C549.23 184.09 549.29 183.43 549.39 182.3C549.52 181 549.68 179.46 549.86 177.71L549.9 177.3L550.25 177.54C551.11 178.15 552.04 178.8 553.01 179.48C553.9 180.12 554.75 180.73 555.55 181.3L555.92 181.56L555.51 181.73C553.71 182.47 552.16 183.09 551.06 183.51C549.95 183.93 549.29 184.15 549.27 184.1C549.25 184.05 549.87 183.73 550.94 183.23C552.01 182.73 553.54 182.05 555.32 181.28L555.28 181.71C554.48 181.14 553.61 180.54 552.71 179.91C551.74 179.22 550.82 178.55 549.95 177.94L550.34 177.77C549.87 181.49 549.42 184.13 549.27 184.1Z" fill="#FAFAFA"/>
<path d="M518.77 197.58C518.73 197.57 518.79 196.91 518.89 195.78C519.02 194.48 519.18 192.94 519.36 191.19L519.4 190.78L519.75 191.02C520.61 191.63 521.54 192.28 522.51 192.96C523.4 193.6 524.25 194.21 525.05 194.78L525.42 195.04L525.01 195.21C523.21 195.95 521.66 196.57 520.56 196.99C519.45 197.41 518.79 197.64 518.77 197.58C518.75 197.53 519.37 197.21 520.44 196.71C521.51 196.21 523.04 195.53 524.82 194.76L524.78 195.19C523.98 194.62 523.11 194.02 522.21 193.39C521.24 192.7 520.32 192.03 519.45 191.42L519.84 191.25C519.36 194.97 518.92 197.61 518.77 197.58Z" fill="#FAFAFA"/>
<path d="M533.8 194.42C533.76 194.41 533.82 193.75 533.92 192.62C534.05 191.32 534.21 189.78 534.39 188.03L534.43 187.62L534.78 187.86C535.64 188.47 536.57 189.12 537.54 189.8C538.43 190.44 539.28 191.05 540.08 191.62L540.45 191.88L540.04 192.05C538.24 192.79 536.69 193.41 535.59 193.83C534.49 194.25 533.82 194.47 533.8 194.42C533.78 194.37 534.4 194.05 535.47 193.55C536.54 193.05 538.07 192.37 539.85 191.6L539.81 192.03C539.01 191.46 538.14 190.86 537.24 190.23C536.27 189.54 535.35 188.87 534.48 188.26L534.87 188.09C534.4 191.8 533.96 194.44 533.8 194.42Z" fill="#FAFAFA"/>
<path d="M507.64 190.84C507.6 190.83 507.66 190.17 507.76 189.04C507.89 187.74 508.05 186.2 508.23 184.45L508.27 184.04L508.62 184.28C509.48 184.89 510.41 185.54 511.38 186.22C512.27 186.86 513.12 187.47 513.92 188.04L514.29 188.3L513.88 188.47C512.08 189.21 510.53 189.83 509.43 190.25C508.32 190.67 507.66 190.89 507.64 190.84C507.62 190.79 508.24 190.47 509.31 189.97C510.38 189.47 511.91 188.79 513.69 188.02L513.65 188.45C512.85 187.88 511.98 187.28 511.08 186.65C510.11 185.96 509.19 185.29 508.32 184.68L508.71 184.51C508.24 188.22 507.79 190.86 507.64 190.84Z" fill="#FAFAFA"/>
<path d="M566.61 161.82C566.59 161.85 565.96 161.68 564.86 161.37C563.61 161 562.12 160.56 560.44 160.06L560.04 159.94L560.34 159.64C561.1 158.9 561.91 158.11 562.76 157.28C563.55 156.52 564.31 155.8 565.02 155.12L565.35 154.81L565.44 155.24C565.83 157.14 566.16 158.78 566.36 159.95C566.57 161.11 566.67 161.81 566.61 161.82C566.55 161.83 566.35 161.16 566.06 160.02C565.77 158.87 565.38 157.25 564.95 155.35L565.37 155.47C564.67 156.16 563.91 156.89 563.12 157.66C562.26 158.48 561.44 159.27 560.67 160L560.58 159.59C564.16 160.75 566.67 161.67 566.61 161.82Z" fill="#FAFAFA"/>
<path d="M471.61 372.44L476 363.95L491.95 372.07L485.66 384.56L484.64 384.12C480.11 382.12 461.76 373.65 459.27 371.26C456.5 368.6 471.61 372.44 471.61 372.44Z" fill="#E76F51"/>
<g opacity="0.5">
<g opacity="0.5">
<path opacity="0.5" d="M479.94 381.49C480.85 380.27 482.22 379.41 483.71 379.12C485.2 378.83 486.74 379.06 488.03 379.86L485.76 384.32L479.94 381.49Z" fill="white"/>
</g>
</g>
<g opacity="0.4">
<g opacity="0.4">
<path opacity="0.4" d="M464.11 370.8C464.11 370.8 458.66 369.75 458.86 370.84C459.05 371.92 477.28 381.18 485.67 384.56L485.83 384.19L464.48 373.57C464.48 373.57 465.02 371.31 464.11 370.8Z" fill="white"/>
</g>
</g>
<path d="M486.08 384.31C486.08 384.32 485.98 384.28 485.79 384.2C485.55 384.09 485.28 383.98 484.98 383.85C484.17 383.48 483.18 383.03 482.02 382.5C479.53 381.34 476.1 379.7 472.36 377.8C468.62 375.9 465.27 374.11 462.86 372.78C461.74 372.15 460.79 371.62 460.02 371.19C459.74 371.02 459.49 370.88 459.26 370.74C459.09 370.64 459 370.58 459 370.57C459 370.56 459.1 370.61 459.28 370.7C459.52 370.82 459.77 370.96 460.06 371.11C460.84 371.53 461.8 372.04 462.93 372.64C465.35 373.93 468.71 375.7 472.46 377.6C476.2 379.5 479.61 381.16 482.09 382.35C483.25 382.91 484.23 383.38 485.02 383.76C485.31 383.9 485.58 384.03 485.81 384.15C485.99 384.25 486.08 384.3 486.08 384.31Z" fill="#263238"/>
<path d="M464.35 373.82C464.29 373.8 464.59 373.08 464.51 372.16C464.44 371.24 464.03 370.58 464.09 370.55C464.13 370.51 464.66 371.16 464.73 372.15C464.82 373.13 464.4 373.86 464.35 373.82Z" fill="#263238"/>
<path d="M470.28 373.83C470.22 373.84 470.13 373.45 470.09 372.96C470.04 372.47 470.05 372.08 470.11 372.07C470.17 372.06 470.26 372.45 470.3 372.94C470.35 373.42 470.34 373.82 470.28 373.83Z" fill="#263238"/>
<path d="M471.92 373.8C471.86 373.82 471.7 373.53 471.55 373.14C471.4 372.75 471.32 372.42 471.38 372.4C471.44 372.38 471.6 372.67 471.75 373.06C471.9 373.45 471.97 373.78 471.92 373.8Z" fill="#263238"/>
<path d="M473.5 372.71C473.47 372.76 473.08 372.62 472.61 372.39C472.14 372.16 471.79 371.93 471.82 371.88C471.85 371.83 472.24 371.97 472.71 372.2C473.17 372.43 473.53 372.65 473.5 372.71Z" fill="#263238"/>
<path d="M474.32 371.79C474.31 371.85 473.81 371.82 473.25 371.59C472.69 371.36 472.32 371.02 472.36 370.97C472.4 370.92 472.8 371.16 473.34 371.39C473.87 371.61 474.33 371.73 474.32 371.79Z" fill="#263238"/>
<path d="M470.44 372.16C470.43 372.18 470.01 372.03 469.42 371.63C469.12 371.43 468.79 371.17 468.45 370.83C468.29 370.66 468.1 370.5 467.96 370.25C467.89 370.13 467.83 369.98 467.87 369.8C467.91 369.62 468.08 369.49 468.23 369.47C469.47 369.46 470.17 370.51 470.28 371.2C470.35 371.56 470.31 371.86 470.27 372.05C470.22 372.25 470.17 372.34 470.16 372.34C470.12 372.33 470.3 371.9 470.14 371.23C470.06 370.9 469.88 370.52 469.55 370.22C469.24 369.93 468.74 369.64 468.29 369.68C468.07 369.72 468.03 369.94 468.16 370.14C468.27 370.33 468.46 370.51 468.61 370.68C468.93 371.01 469.25 371.28 469.53 371.49C470.07 371.93 470.46 372.13 470.44 372.16Z" fill="#263238"/>
<path d="M470.15 372.07C470.13 372.07 470.11 371.74 470.39 371.3C470.53 371.09 470.75 370.86 471.05 370.69C471.35 370.55 471.74 370.36 472.17 370.6C472.39 370.75 472.37 371.08 472.25 371.23C472.14 371.4 471.98 371.51 471.84 371.6C471.56 371.78 471.28 371.9 471.04 371.97C470.56 372.12 470.24 372.11 470.24 372.09C470.23 372.06 470.54 372.01 470.99 371.83C471.21 371.74 471.47 371.61 471.73 371.43C471.98 371.28 472.27 370.94 472.04 370.77C471.8 370.61 471.4 370.74 471.14 370.86C470.87 371 470.66 371.19 470.51 371.38C470.23 371.77 470.19 372.08 470.15 372.07Z" fill="#263238"/>
<path d="M487.97 379.78C487.95 379.81 487.53 379.5 486.77 379.22C486.02 378.94 484.87 378.72 483.66 378.97C482.45 379.22 481.48 379.87 480.9 380.42C480.31 380.98 480.05 381.43 480.02 381.41C480.01 381.4 480.06 381.29 480.18 381.09C480.3 380.89 480.5 380.62 480.79 380.32C481.36 379.72 482.35 379.02 483.62 378.76C484.89 378.5 486.07 378.75 486.83 379.08C487.21 379.24 487.51 379.41 487.7 379.55C487.88 379.68 487.98 379.77 487.97 379.78Z" fill="#263238"/>
<path d="M489.69 372.29C489.74 372.32 489.06 373.82 488.16 375.64C487.26 377.46 486.49 378.92 486.44 378.89C486.39 378.86 487.07 377.36 487.97 375.54C488.87 373.72 489.64 372.27 489.69 372.29Z" fill="#263238"/>
<path d="M478.73 378.92C478.71 378.97 477.58 378.62 476.28 377.97C474.98 377.32 474.01 376.64 474.04 376.6C474.07 376.55 475.08 377.14 476.38 377.78C477.67 378.41 478.75 378.86 478.73 378.92Z" fill="#263238"/>
<path d="M481.86 380.5C481.88 380.56 481.66 380.68 481.43 380.86C481.2 381.04 481.04 381.23 480.98 381.2C480.93 381.17 481.03 380.91 481.29 380.69C481.56 380.48 481.84 380.44 481.86 380.5Z" fill="#263238"/>
<path d="M483.78 379.63C483.8 379.69 483.61 379.8 483.36 379.88C483.11 379.96 482.89 379.99 482.87 379.93C482.85 379.87 483.04 379.76 483.29 379.68C483.54 379.6 483.76 379.58 483.78 379.63Z" fill="#263238"/>
<path d="M485.81 379.82C485.77 379.87 485.56 379.76 485.28 379.72C485 379.68 484.77 379.72 484.75 379.66C484.72 379.61 484.97 379.45 485.31 379.5C485.66 379.55 485.85 379.78 485.81 379.82Z" fill="#263238"/>
<path d="M487.17 380.11C487.16 380.17 487.03 380.2 486.87 380.19C486.71 380.17 486.59 380.11 486.59 380.05C486.6 379.99 486.73 379.96 486.89 379.97C487.05 379.99 487.18 380.05 487.17 380.11Z" fill="#263238"/>
<path d="M576.35 375.85L572.55 367.08L588.93 359.85L594.63 372.62L593.64 373.13C589.23 375.38 571.07 384.24 567.64 384.65C563.82 385.12 576.35 375.85 576.35 375.85Z" fill="#E76F51"/>
<g opacity="0.5">
<g opacity="0.5">
<path opacity="0.5" d="M588.63 375.11C588.26 373.64 588.46 372.03 589.18 370.7C589.9 369.36 591.05 368.32 592.48 367.82L594.5 372.4L588.63 375.11Z" fill="white"/>
</g>
</g>
<g opacity="0.4">
<g opacity="0.4">
<path opacity="0.4" d="M570.33 380.62C570.33 380.62 566.07 384.18 567.04 384.71C568 385.24 586.7 376.98 594.62 372.61L594.43 372.26L572.71 382.09C572.71 382.09 571.3 380.24 570.33 380.62Z" fill="white"/>
</g>
</g>
<path d="M594.69 372.14C594.69 372.15 594.6 372.2 594.42 372.29C594.18 372.41 593.92 372.55 593.63 372.7C592.84 373.09 591.86 373.57 590.71 374.14C588.24 375.34 584.8 376.96 580.96 378.66C577.12 380.36 573.61 381.82 571.06 382.85C569.87 383.32 568.85 383.72 568.03 384.04C567.72 384.15 567.45 384.26 567.2 384.35C567.01 384.42 566.91 384.45 566.91 384.44C566.91 384.43 567 384.39 567.19 384.3C567.43 384.2 567.7 384.08 568 383.95C568.82 383.61 569.82 383.19 571 382.69C573.54 381.63 577.03 380.15 580.87 378.45C584.7 376.75 588.15 375.16 590.64 373.99C591.8 373.45 592.79 372.98 593.59 372.61C593.89 372.47 594.15 372.35 594.39 372.24C594.59 372.17 594.69 372.13 594.69 372.14Z" fill="#263238"/>
<path d="M572.83 382.34C572.77 382.37 572.41 381.68 571.65 381.17C570.89 380.64 570.12 380.54 570.13 380.48C570.12 380.43 570.96 380.42 571.77 380.99C572.59 381.55 572.88 382.33 572.83 382.34Z" fill="#263238"/>
<path d="M576.58 377.75C576.55 377.8 576.19 377.62 575.79 377.35C575.38 377.08 575.08 376.82 575.12 376.77C575.15 376.72 575.51 376.9 575.91 377.17C576.31 377.44 576.61 377.7 576.58 377.75Z" fill="#263238"/>
<path d="M577.59 376.47C577.57 376.53 577.24 376.47 576.84 376.34C576.45 376.21 576.14 376.06 576.16 376C576.18 375.94 576.51 376 576.91 376.13C577.31 376.26 577.61 376.41 577.59 376.47Z" fill="#263238"/>
<path d="M577.75 374.55C577.77 374.6 577.41 374.82 576.94 375.04C576.47 375.25 576.07 375.38 576.04 375.33C576.02 375.28 576.38 375.06 576.85 374.84C577.32 374.63 577.72 374.5 577.75 374.55Z" fill="#263238"/>
<path d="M577.55 373.33C577.59 373.37 577.26 373.74 576.72 374.03C576.18 374.32 575.69 374.39 575.68 374.33C575.66 374.27 576.11 374.11 576.62 373.83C577.13 373.57 577.51 373.29 577.55 373.33Z" fill="#263238"/>
<path d="M575.39 376.57C575.4 376.59 575.02 376.82 574.33 377.03C573.99 377.13 573.57 377.23 573.1 377.28C572.86 377.3 572.62 377.34 572.34 377.3C572.21 377.28 572.05 377.23 571.94 377.09C571.83 376.95 571.83 376.74 571.91 376.6C572.69 375.63 573.94 375.75 574.55 376.11C574.87 376.28 575.08 376.5 575.2 376.66C575.32 376.82 575.36 376.93 575.35 376.93C575.32 376.96 575.1 376.55 574.47 376.24C574.16 376.09 573.76 376 573.31 376.05C572.89 376.1 572.35 376.31 572.09 376.69C571.98 376.89 572.13 377.06 572.36 377.08C572.58 377.12 572.84 377.08 573.06 377.07C573.52 377.03 573.93 376.96 574.27 376.87C574.97 376.72 575.38 376.54 575.39 376.57Z" fill="#263238"/>
<path d="M575.14 376.74C575.13 376.76 574.86 376.56 574.7 376.06C574.62 375.82 574.59 375.5 574.65 375.16C574.73 374.84 574.83 374.42 575.29 374.24C575.55 374.16 575.79 374.39 575.83 374.58C575.89 374.77 575.88 374.97 575.86 375.13C575.82 375.46 575.74 375.75 575.64 375.99C575.45 376.46 575.25 376.7 575.23 376.68C575.2 376.66 575.36 376.4 575.5 375.94C575.57 375.71 575.63 375.43 575.66 375.11C575.71 374.82 575.63 374.38 575.34 374.45C575.07 374.54 574.91 374.92 574.84 375.2C574.78 375.5 574.79 375.79 574.84 376.02C574.95 376.49 575.17 376.72 575.14 376.74Z" fill="#263238"/>
<path d="M592.37 367.81C592.38 367.85 591.88 367.97 591.18 368.39C590.48 368.8 589.6 369.55 589.02 370.64C588.45 371.74 588.34 372.9 588.4 373.7C588.46 374.51 588.64 374.99 588.61 375.01C588.6 375.01 588.54 374.9 588.46 374.68C588.38 374.46 588.3 374.13 588.25 373.72C588.14 372.9 588.23 371.69 588.83 370.55C589.43 369.41 590.37 368.64 591.11 368.26C591.48 368.06 591.8 367.95 592.02 367.88C592.24 367.81 592.37 367.79 592.37 367.81Z" fill="#263238"/>
<path d="M587.67 361.74C587.72 361.72 588.45 363.19 589.3 365.04C590.15 366.89 590.79 368.41 590.73 368.43C590.68 368.45 589.95 366.98 589.1 365.13C588.25 363.29 587.61 361.77 587.67 361.74Z" fill="#263238"/>
<path d="M585.86 374.42C585.89 374.47 584.9 375.12 583.57 375.71C582.25 376.31 581.11 376.63 581.09 376.58C581.07 376.52 582.17 376.11 583.48 375.52C584.8 374.93 585.83 374.37 585.86 374.42Z" fill="#263238"/>
<path d="M589.07 373C589.13 373.02 589.08 373.27 589.08 373.56C589.08 373.85 589.12 374.1 589.06 374.12C589.01 374.14 588.86 373.9 588.87 373.56C588.87 373.22 589.02 372.98 589.07 373Z" fill="#263238"/>
<path d="M589.61 370.96C589.67 370.98 589.64 371.2 589.54 371.44C589.45 371.69 589.33 371.87 589.27 371.85C589.21 371.83 589.24 371.61 589.34 371.36C589.44 371.12 589.56 370.94 589.61 370.96Z" fill="#263238"/>
<path d="M591.04 369.51C591.05 369.57 590.83 369.66 590.63 369.86C590.42 370.05 590.31 370.26 590.25 370.24C590.19 370.23 590.23 369.94 590.48 369.7C590.74 369.46 591.03 369.45 591.04 369.51Z" fill="#263238"/>
<path d="M592.13 368.64C592.17 368.68 592.12 368.81 592 368.92C591.89 369.03 591.76 369.09 591.72 369.05C591.68 369.01 591.73 368.88 591.85 368.77C591.97 368.66 592.09 368.6 592.13 368.64Z" fill="#263238"/>
<path d="M593.07 365.31L570.02 378.41L537.71 313.66C532.91 296.35 528.29 235.42 528.29 235.42L554.92 237.45C554.92 237.45 559.02 281.19 565.46 303.74L593.07 365.31Z" fill="#263238"/>
<path d="M568.16 208.82C568.8 208.78 573.47 226.85 567.78 237.74C567.23 238.8 563.14 244.71 563.14 244.71C548.63 261.83 533.93 295.03 529.83 303.76C521.41 321.65 490.38 380.52 490.38 380.52L470.45 369.11L499.6 294.17L524.59 220.64L568.16 208.82Z" fill="#263238"/>
<path d="M555.07 255.07C555.04 255.05 554.74 255.58 554.23 256.54C553.68 257.58 552.95 258.96 552.07 260.63C550.25 264.08 547.69 268.83 544.86 274.06C542.02 279.3 539.51 284.08 537.77 287.57C536.9 289.32 536.21 290.74 535.75 291.73C535.29 292.72 535.05 293.28 535.08 293.29C535.11 293.31 535.41 292.78 535.92 291.82C536.47 290.78 537.2 289.4 538.08 287.73C539.9 284.28 542.46 279.53 545.29 274.29C548.13 269.05 550.64 264.28 552.38 260.78C553.25 259.03 553.94 257.61 554.4 256.62C554.86 255.64 555.1 255.08 555.07 255.07Z" fill="#455A64"/>
<path d="M500.05 191.2C496.32 190.83 491.85 190.32 489.55 189.76C485.28 188.73 485.35 188.34 485.55 187.85C486.07 186.55 493.13 189.38 491.94 187.89C490.75 186.4 482.93 185.44 483.53 184.11C484.31 182.38 491.65 185.47 492.29 185.69C492.91 185.9 493.24 184.98 492.65 184.82C491.81 184.58 483 181.89 483.75 180.18C484.17 179.23 485.79 180.18 485.79 180.18C485.79 180.18 493.86 183.31 494.19 182.49C494.52 181.66 489.84 179.66 488.22 179.09C486.62 178.53 486.21 177.54 487.03 177.03C487.59 176.68 492.59 178.28 494.19 178.88C495.78 179.47 500.12 181.18 498.62 178.58C497.12 175.98 496.92 173.43 497.33 172.71C497.75 171.99 498.9 172.34 498.99 173.26C499.07 174.01 499.58 175.22 499.99 176.11C500.33 176.85 500.79 177.53 501.36 178.11C501.85 178.62 502.3 179.05 502.71 179.43L506.27 182.8L503.79 191.54L500.05 191.2Z" fill="#FFBE9D"/>
<path d="M544.83 96.33C543.55 94.28 540.89 93.54 538.48 93.57C531.77 93.66 525.5 98.99 524.32 105.6C523.84 108.31 524.12 111.16 523.27 113.78C522.65 115.67 521.48 117.32 520.39 118.99C519.3 120.66 518.26 122.43 517.97 124.4C517.68 126.37 518.3 128.59 519.96 129.7C518.01 131.69 517.53 134.96 518.82 137.43C520.11 139.9 523.08 141.36 525.82 140.89C527.28 140.64 528.84 139.92 530.15 140.61C530.8 140.96 531.24 141.59 531.75 142.12C533.75 144.17 537.09 144.51 539.76 143.47C542.43 142.43 544.52 140.25 546.1 137.85C546.52 137.22 547.07 136.48 547.82 136.56C548.26 136.6 548.61 136.92 548.96 137.2C551.58 139.25 555.73 138.93 558.01 136.52C560.29 134.11 560.37 129.94 558.17 127.44C560.56 126.77 562.44 124.73 563.23 122.37C564.02 120.01 563.79 117.4 562.95 115.06C561.7 111.59 559.19 108.75 556.75 106C554.51 103.48 553.85 99.59 551.6 97.07C550.63 95.98 549.47 94.65 547.42 94.28C545.99 94.02 543.88 94.63 542.62 95.35" fill="#263238"/>
<path d="M539.8 97.52C546.77 97.52 552.4 103.21 552.33 110.18L551.96 144.43C551.9 148.8 548.1 152.22 543.43 152.12C538.71 152.02 534.88 148.37 534.86 143.96C534.85 139.33 534.75 134.46 534.75 134.46C534.75 134.46 528.79 133.47 527.55 125.69C527.24 123.73 527.22 116.56 527.27 109.94C527.33 103.06 532.92 97.52 539.8 97.52Z" fill="#FFBE9D"/>
<path d="M529.04 114.71C529.02 115.24 529.45 115.69 530 115.72C530.55 115.75 531.01 115.35 531.03 114.82C531.05 114.29 530.62 113.84 530.07 113.81C529.52 113.78 529.06 114.18 529.04 114.71Z" fill="#263238"/>
<path d="M528.83 113.59C528.95 113.72 529.71 113.16 530.78 113.16C531.85 113.15 532.64 113.7 532.76 113.57C532.82 113.51 532.69 113.28 532.35 113.03C532.01 112.78 531.44 112.54 530.77 112.54C530.1 112.54 529.54 112.79 529.22 113.04C528.88 113.3 528.77 113.53 528.83 113.59Z" fill="#263238"/>
<path d="M539.79 114.71C539.77 115.24 540.2 115.69 540.75 115.72C541.3 115.75 541.76 115.35 541.78 114.82C541.8 114.29 541.37 113.84 540.82 113.81C540.27 113.78 539.81 114.18 539.79 114.71Z" fill="#263238"/>
<path d="M539.38 113.79C539.5 113.92 540.26 113.36 541.33 113.36C542.4 113.35 543.19 113.9 543.31 113.77C543.37 113.71 543.24 113.48 542.9 113.23C542.56 112.98 541.99 112.74 541.32 112.74C540.65 112.74 540.09 112.99 539.77 113.24C539.43 113.5 539.32 113.73 539.38 113.79Z" fill="#263238"/>
<path d="M535.48 121.75C535.48 121.69 534.82 121.57 533.74 121.44C533.47 121.41 533.21 121.36 533.16 121.17C533.1 120.97 533.21 120.68 533.34 120.36C533.6 119.7 533.87 119 534.15 118.27C535.28 115.3 536.09 112.85 535.97 112.81C535.85 112.77 534.84 115.14 533.71 118.11C533.44 118.84 533.18 119.54 532.93 120.21C532.83 120.52 532.65 120.88 532.79 121.29C532.86 121.49 533.07 121.64 533.24 121.69C533.42 121.74 533.57 121.75 533.71 121.75C534.8 121.81 535.48 121.82 535.48 121.75Z" fill="#263238"/>
<path d="M534.74 134.46C534.74 134.46 539.97 134.8 545.16 131.68C545.16 131.68 542.63 137.02 534.84 136.3L534.74 134.46Z" fill="#EB996E"/>
<path d="M535.94 124.34C536.33 123.83 537 123.55 537.67 123.62C538.14 123.67 538.61 123.89 538.89 124.27C539.17 124.65 539.23 125.19 538.98 125.55C538.69 125.96 538.08 126.05 537.57 125.91C537.06 125.76 536.62 125.43 536.2 125.09C536.08 125 535.97 124.9 535.89 124.77C535.82 124.64 535.8 124.48 535.89 124.37" fill="#EB996E"/>
<path d="M538.64 122.5C538.47 122.49 538.46 123.66 537.47 124.48C536.47 125.31 535.23 125.18 535.22 125.34C535.2 125.41 535.5 125.57 536.02 125.58C536.53 125.6 537.29 125.43 537.9 124.93C538.51 124.42 538.77 123.75 538.81 123.27C538.85 122.78 538.72 122.49 538.64 122.5Z" fill="#263238"/>
<path d="M539.34 110.79C539.45 111.08 540.52 110.94 541.78 111.1C543.04 111.23 544.06 111.6 544.23 111.33C544.3 111.2 544.13 110.93 543.72 110.65C543.31 110.37 542.66 110.1 541.91 110.02C541.15 109.94 540.46 110.06 540 110.24C539.52 110.42 539.29 110.65 539.34 110.79Z" fill="#263238"/>
<path d="M529.22 110.48C529.41 110.72 530.15 110.47 531.04 110.46C531.93 110.42 532.68 110.62 532.86 110.37C532.94 110.25 532.82 110 532.49 109.77C532.17 109.54 531.62 109.35 531.01 109.37C530.4 109.39 529.87 109.61 529.56 109.86C529.24 110.11 529.14 110.36 529.22 110.48Z" fill="#263238"/>
<path d="M555.14 109.98C554.59 105.27 552.37 100.52 548.32 98.04C544.77 95.86 541.15 95.37 537.62 97.29C534.68 96.82 531.57 97.87 529.37 99.88C527.07 101.98 525.72 105 525.36 108.09C525.01 111.18 525.61 114.33 526.76 117.22C526.96 114.59 527.16 111.96 527.36 109.34C531.4 107.62 535.82 104.23 537.39 100.12C538.91 105.65 543.56 110.3 549.18 111.61C548.37 116.19 550.21 121.15 553.8 124.1C554.78 119.44 555.69 114.69 555.14 109.98Z" fill="#263238"/>
<path d="M549.98 114.64C550.58 117.65 549.55 120.72 548.79 123.7C548.03 126.68 547.57 130.04 549.17 132.66C549.63 133.42 550.27 134.16 550.25 135.05C550.23 135.84 549.67 136.51 549.44 137.26C549.01 138.65 549.77 140.22 550.99 141.01C552.21 141.8 553.77 141.91 555.19 141.61C556.61 141.32 557.93 140.66 559.23 140.02C560.49 139.39 561.76 138.76 563.02 138.13C563.58 137.85 564.15 137.56 564.61 137.13C565.39 136.4 565.76 135.34 565.99 134.31C566.88 130.28 565.99 125.97 563.97 122.37C561.94 118.77 562.84 112.8 559.36 110.59" fill="#263238"/>
<path d="M561.09 138.75C561.07 138.68 561.91 138.68 563.12 137.95C563.71 137.58 564.39 137.02 564.96 136.21C565.54 135.41 566.01 134.34 566.12 133.1C566.25 131.86 566.03 130.47 565.44 129.13C565.14 128.46 564.76 127.8 564.28 127.19C563.8 126.57 563.23 125.99 562.64 125.38C562.06 124.77 561.45 124.13 560.93 123.39C560.41 122.65 560 121.76 559.89 120.79C559.65 118.87 560.38 116.98 560.07 115.14C559.92 114.23 559.41 113.44 558.69 112.91C557.97 112.36 557.11 112.03 556.25 111.73C554.51 111.2 552.79 110.51 551.38 109.56C548.52 107.68 546.41 105.43 544.73 103.51C543.05 101.58 541.83 99.9 541 98.74C540.59 98.16 540.27 97.7 540.07 97.38C539.86 97.06 539.76 96.89 539.78 96.88C539.79 96.87 539.92 97.02 540.16 97.31C540.43 97.65 540.76 98.08 541.17 98.61C542.05 99.73 543.31 101.37 545.01 103.26C546.71 105.14 548.84 107.34 551.65 109.15C553.06 110.07 554.65 110.71 556.43 111.24C557.3 111.54 558.21 111.88 559.02 112.49C559.83 113.08 560.43 114.02 560.59 115.04C560.91 117.09 560.18 118.96 560.41 120.72C560.6 122.49 561.86 123.84 563 125.04C563.58 125.65 564.15 126.25 564.65 126.9C565.14 127.55 565.54 128.25 565.84 128.95C566.43 130.37 566.64 131.83 566.49 133.13C566.35 134.44 565.82 135.55 565.2 136.37C564.58 137.2 563.86 137.76 563.23 138.11C562.59 138.46 562.05 138.62 561.67 138.68C561.29 138.77 561.09 138.77 561.09 138.75Z" fill="#455A64"/>
<path d="M558.69 108.1C558.68 108.13 558.39 108.07 557.86 107.93C557.33 107.79 556.59 107.55 555.68 107.2C553.86 106.51 551.43 105.34 548.97 103.67C546.51 101.99 544.53 100.16 543.22 98.72C542.56 98 542.06 97.4 541.74 96.96C541.42 96.52 541.25 96.27 541.28 96.25C541.35 96.2 542.12 97.11 543.49 98.46C544.85 99.82 546.84 101.58 549.27 103.23C551.7 104.87 554.07 106.08 555.83 106.85C557.58 107.63 558.72 108.02 558.69 108.1Z" fill="#455A64"/>
<path d="M531.34 96.08C531.3 96.03 531.7 95.6 532.48 95.05C533.25 94.52 534.49 93.86 536 93.83C536.75 93.82 537.47 93.97 538.06 94.26C538.65 94.55 539.1 94.96 539.39 95.35C539.99 96.15 539.98 96.81 539.92 96.81C539.84 96.83 539.71 96.25 539.11 95.59C538.52 94.93 537.38 94.31 536.01 94.36C534.64 94.39 533.47 94.94 532.67 95.37C531.87 95.82 531.39 96.15 531.34 96.08Z" fill="#455A64"/>
<path d="M88.15 268.94C88.15 268.94 94.72 269.23 92.42 283.78C90.12 298.33 87.72 305.94 87.72 305.94C87.72 305.94 87.53 309.2 90.12 308.86C92.7 308.52 97.79 305.91 99.85 308.54C101.98 311.27 100.69 314.92 96.97 318.96C93.25 323 85.42 332.16 84.71 333C84.02 333.82 83.59 335.45 85.39 335.49C87.19 335.54 99.67 332.87 100.59 338.86C101.5 344.86 89.28 354.42 87.97 355.49C86.65 356.56 86.5 357.32 86.89 358.1C87.28 358.89 91.39 357.59 94.98 356.98C98.56 356.37 102.82 356.28 103.06 359.79C103.3 363.3 97.3 372.78 77.99 381.23L68.79 384.56L61.17 378.35C45.67 364.07 43.09 353.15 44.46 349.91C45.83 346.67 49.83 348.14 53.01 349.89C56.2 351.64 59.66 354.2 60.29 353.59C60.92 352.97 61.02 352.21 60.12 350.77C59.22 349.33 50.79 336.3 53.61 330.93C56.43 325.56 67.36 332.15 69.08 332.69C70.8 333.23 70.92 331.55 70.53 330.55C70.13 329.53 65.72 318.32 63.52 313.29C61.32 308.25 61.28 304.38 64.19 302.5C66.99 300.68 70.95 304.81 73.29 305.97C75.62 307.14 76.51 303.99 76.51 303.99C76.51 303.99 76.72 296.01 79.29 281.51C81.86 267.01 88.31 268.95 88.31 268.95" fill="#2A9D8F"/>
<path d="M86.11 281.97C86.12 281.97 86.11 282.06 86.08 282.24C86.05 282.43 86.01 282.69 85.96 283.02C85.84 283.73 85.68 284.73 85.47 286.01C85.03 288.63 84.39 292.38 83.61 297C82.08 306.31 79.96 319.13 77.63 333.29C75.32 347.47 73.17 360.3 71.54 369.57C70.71 374.19 70.04 377.93 69.56 380.54C69.32 381.82 69.13 382.82 69 383.52C68.93 383.84 68.88 384.1 68.84 384.29C68.8 384.46 68.78 384.55 68.77 384.55C68.76 384.55 68.77 384.46 68.8 384.28C68.83 384.09 68.87 383.83 68.92 383.5C69.04 382.79 69.2 381.79 69.41 380.51C69.85 377.89 70.49 374.14 71.27 369.52C72.84 360.24 74.95 347.4 77.25 333.22C79.56 319.04 81.71 306.22 83.34 296.94C84.17 292.32 84.84 288.58 85.32 285.97C85.56 284.69 85.75 283.69 85.88 282.99C85.95 282.67 86 282.41 86.04 282.22C86.08 282.06 86.11 281.97 86.11 281.97Z" fill="#263238"/>
<path d="M92.88 312.47C92.91 312.51 92.15 313.17 90.91 314.22C89.6 315.34 87.93 316.77 86.09 318.35C84.21 319.97 82.5 321.42 81.22 322.43C80.58 322.94 80.06 323.33 79.69 323.6C79.32 323.86 79.1 324 79.09 323.98C79.06 323.94 79.83 323.29 81.05 322.23C82.35 321.1 84.01 319.66 85.84 318.07C87.72 316.45 89.45 315.02 90.74 314.02C91.38 313.52 91.91 313.12 92.28 312.86C92.65 312.58 92.86 312.45 92.88 312.47Z" fill="#263238"/>
<path d="M78.26 323.58C78.18 323.64 75.26 320.04 71.74 315.53C68.22 311.02 65.44 307.31 65.52 307.25C65.6 307.19 68.52 310.79 72.04 315.3C75.56 319.81 78.34 323.52 78.26 323.58Z" fill="#263238"/>
<path d="M75.36 348.79C75.35 348.81 75.12 348.69 74.72 348.45C74.32 348.21 73.76 347.85 73.06 347.39C71.68 346.47 69.8 345.14 67.81 343.58C65.81 342.02 64.08 340.51 62.86 339.38C62.25 338.82 61.76 338.35 61.44 338.02C61.11 337.69 60.94 337.5 60.96 337.48C61 337.44 61.78 338.11 63.04 339.18C64.3 340.25 66.06 341.72 68.05 343.28C70.04 344.84 71.88 346.2 73.22 347.17C74.56 348.14 75.4 348.74 75.36 348.79Z" fill="#263238"/>
<path d="M90.8 341.65C90.82 341.7 89.98 342.13 88.59 342.79C87.2 343.45 85.28 344.33 83.15 345.29C81.01 346.25 79.07 347.09 77.66 347.69C76.25 348.28 75.36 348.63 75.34 348.58C75.32 348.53 76.16 348.1 77.55 347.44C78.94 346.78 80.86 345.9 83 344.94C85.13 343.98 87.08 343.14 88.49 342.55C89.89 341.94 90.78 341.6 90.8 341.65Z" fill="#263238"/>
<path d="M91.07 364.22C91.08 364.24 90.81 364.39 90.32 364.63C89.75 364.9 89.04 365.23 88.21 365.62C86.42 366.44 83.94 367.54 81.2 368.74C78.45 369.94 75.95 371 74.14 371.76C73.29 372.11 72.57 372.4 71.98 372.63C71.47 372.83 71.18 372.93 71.17 372.9C71.16 372.88 71.43 372.73 71.92 372.49C72.49 372.22 73.2 371.89 74.03 371.5C75.82 370.68 78.3 369.58 81.05 368.38C83.8 367.18 86.29 366.12 88.11 365.36C88.96 365.01 89.68 364.72 90.27 364.49C90.77 364.3 91.06 364.2 91.07 364.22Z" fill="#263238"/>
<path d="M71.58 372.56C71.56 372.58 71.29 372.41 70.8 372.08C70.31 371.75 69.62 371.26 68.77 370.64C67.07 369.4 64.76 367.63 62.29 365.57C59.81 363.52 57.65 361.57 56.12 360.13C55.35 359.41 54.74 358.81 54.33 358.4C53.92 357.98 53.69 357.74 53.71 357.72C53.73 357.7 53.98 357.9 54.43 358.29C54.93 358.73 55.56 359.28 56.3 359.93C57.88 361.32 60.07 363.23 62.54 365.28C65.01 367.33 67.29 369.13 68.94 370.43C69.72 371.04 70.38 371.56 70.9 371.97C71.35 372.32 71.6 372.54 71.58 372.56Z" fill="#263238"/>
<path d="M623.13 320.89C626.06 322.16 628.22 324.87 629.3 327.88C630.38 330.89 630.48 334.18 630.12 337.35C629.42 343.5 625.93 349.7 622.17 354.62C616.99 350.1 615.8 342.22 615.45 338.18C614.89 331.8 617.75 319.94 623.13 320.89Z" fill="#2A9D8F"/>
<path d="M628.19 364.77C627.36 361.3 628.81 357.48 631.47 355.11C634.14 352.73 637.86 351.73 641.43 352C643.08 352.13 644.86 352.61 645.8 353.96C646.68 355.23 646.58 357 645.87 358.37C645.15 359.74 643.92 360.76 642.61 361.58C638.12 364.39 633.26 366.29 628.19 364.77Z" fill="#2A9D8F"/>
<path d="M621.55 383.62C621.52 383.61 621.59 383.16 621.73 382.36C621.89 381.47 622.1 380.32 622.36 378.95C622.93 376.1 623.67 372.01 625.88 368.04C628.07 364.08 631.13 361.17 633.71 359.72C634.99 358.98 636.11 358.54 636.9 358.31C637.29 358.18 637.61 358.13 637.82 358.08C638.03 358.04 638.14 358.02 638.15 358.03C638.19 358.13 636.36 358.46 633.87 359.99C631.38 361.48 628.42 364.36 626.27 368.25C624.1 372.14 623.32 376.16 622.67 379C622.36 380.43 622.1 381.59 621.9 382.39C621.7 383.19 621.58 383.62 621.55 383.62Z" fill="#263238"/>
<path d="M621.74 330.12C621.76 330.12 621.78 330.31 621.8 330.67C621.82 331.08 621.86 331.6 621.89 332.25C621.96 333.63 622.04 335.62 622.12 338.08C622.28 343.01 622.4 349.81 622.37 357.34C622.34 364.86 622.15 371.67 621.95 376.6C621.85 379.06 621.75 381.05 621.67 382.43C621.63 383.08 621.59 383.6 621.56 384.01C621.53 384.37 621.51 384.56 621.49 384.56C621.47 384.56 621.47 384.37 621.47 384.01C621.48 383.6 621.48 383.07 621.49 382.42C621.52 380.99 621.57 379.01 621.63 376.59C621.75 371.66 621.88 364.86 621.92 357.34C621.95 349.82 621.88 343.02 621.8 338.09C621.76 335.67 621.73 333.69 621.71 332.26C621.71 331.61 621.7 331.08 621.7 330.67C621.72 330.31 621.73 330.12 621.74 330.12Z" fill="#263238"/>
<path d="M619.23 368.51C618.05 361.07 613.04 354.35 606.25 351.09C604.52 350.26 602.26 349.72 600.84 351.01C599.42 352.3 599.73 354.61 600.43 356.4C603.33 363.85 611.12 369.11 619.11 369.01" fill="#2A9D8F"/>
<path d="M607.08 356.92C607.09 356.89 607.48 357.06 608.18 357.4C608.53 357.57 608.96 357.77 609.42 358.06C609.89 358.35 610.45 358.63 611 359.05C611.56 359.45 612.2 359.87 612.81 360.41C613.45 360.91 614.08 361.52 614.73 362.16C616.01 363.47 617.29 365.04 618.39 366.86C619.47 368.68 620.25 370.56 620.8 372.31C621.05 373.19 621.28 374.03 621.41 374.84C621.59 375.64 621.65 376.39 621.72 377.08C621.82 377.77 621.78 378.4 621.81 378.94C621.84 379.49 621.8 379.96 621.77 380.35C621.71 381.12 621.67 381.54 621.64 381.54C621.54 381.54 621.71 379.83 621.41 377.11C621.32 376.43 621.24 375.69 621.05 374.91C620.91 374.12 620.66 373.3 620.41 372.43C619.85 370.72 619.07 368.88 618.01 367.09C616.93 365.31 615.68 363.76 614.44 362.45C613.8 361.81 613.2 361.2 612.57 360.7C611.98 360.16 611.37 359.72 610.82 359.31C608.6 357.72 607.04 357.01 607.08 356.92Z" fill="#263238"/>
<path d="M432.22 75.84H232.78V275.28H432.22V75.84Z" fill="#F5F5F5"/>
<path d="M432.22 275.27C432.22 273.35 432.13 195.39 431.99 75.83L432.22 76.06C374.26 76.07 305.82 76.08 232.8 76.1H232.78L233.04 75.84C233.03 148.87 233.01 217.31 233 275.28L232.77 275.05C352.35 275.18 430.3 275.27 432.22 275.27C430.3 275.27 352.35 275.36 232.78 275.5H232.55V275.27C232.54 217.31 232.53 148.87 232.51 75.83V75.57H232.77H232.79C305.81 75.58 374.24 75.6 432.21 75.61H432.44V75.84C432.31 195.39 432.22 273.35 432.22 275.27Z" fill="#263238"/>
<path d="M414.33 263.39C414.33 263.25 417.02 263.13 420.33 263.13C419.81 263.65 420.19 263.27 420.07 263.39V263.38V263.36V263.32V263.24V263.09V262.79C420.07 262.59 420.07 262.39 420.07 262.19C420.08 261.81 420.08 261.43 420.09 261.06C420.11 260.4 420.13 259.77 420.15 259.15C420.2 258.06 420.26 257.39 420.33 257.39C420.4 257.39 420.47 258.06 420.51 259.15C420.53 259.77 420.55 260.4 420.57 261.06C420.58 261.43 420.58 261.8 420.59 262.19C420.59 262.39 420.59 262.59 420.59 262.79V263.09V263.24V263.32V263.36V263.38V263.39C420.47 263.51 420.85 263.13 420.33 263.65C417.02 263.65 414.33 263.53 414.33 263.39Z" fill="#455A64"/>
<path d="M389.16 263.39C389.16 263.25 391.98 263.13 395.45 263.13C398.93 263.13 401.75 263.25 401.75 263.39C401.75 263.53 398.93 263.65 395.45 263.65C391.97 263.65 389.16 263.53 389.16 263.39Z" fill="#455A64"/>
<path d="M363.98 263.39C363.98 263.25 366.8 263.13 370.27 263.13C373.75 263.13 376.57 263.25 376.57 263.39C376.57 263.53 373.75 263.65 370.27 263.65C366.79 263.65 363.98 263.53 363.98 263.39Z" fill="#455A64"/>
<path d="M338.8 263.39C338.8 263.25 341.62 263.13 345.09 263.13C348.57 263.13 351.39 263.25 351.39 263.39C351.39 263.53 348.57 263.65 345.09 263.65C341.61 263.65 338.8 263.53 338.8 263.39Z" fill="#455A64"/>
<path d="M313.62 263.39C313.62 263.25 316.44 263.13 319.91 263.13C323.39 263.13 326.21 263.25 326.21 263.39C326.21 263.53 323.39 263.65 319.91 263.65C316.44 263.65 313.62 263.53 313.62 263.39Z" fill="#455A64"/>
<path d="M288.44 263.39C288.44 263.25 291.26 263.13 294.73 263.13C298.21 263.13 301.03 263.25 301.03 263.39C301.03 263.53 298.21 263.65 294.73 263.65C291.26 263.65 288.44 263.53 288.44 263.39Z" fill="#455A64"/>
<path d="M263.26 263.39C263.26 263.25 266.08 263.13 269.55 263.13C273.03 263.13 275.85 263.25 275.85 263.39C275.85 263.53 273.03 263.65 269.55 263.65C266.08 263.65 263.26 263.53 263.26 263.39Z" fill="#455A64"/>
<path d="M244.67 257.39C244.81 257.39 244.93 260.08 244.93 263.39C244.41 262.87 244.79 263.25 244.67 263.13H244.68H244.7H244.74H244.82H244.97H245.27C245.47 263.13 245.67 263.13 245.87 263.13C246.25 263.14 246.63 263.14 247 263.15C247.66 263.17 248.29 263.19 248.91 263.21C250 263.26 250.67 263.32 250.67 263.39C250.67 263.46 250 263.53 248.91 263.57C248.29 263.59 247.66 263.61 247 263.63C246.63 263.64 246.26 263.64 245.87 263.65C245.67 263.65 245.47 263.65 245.27 263.65H244.97H244.82H244.74H244.7H244.68H244.67C244.55 263.53 244.93 263.91 244.41 263.39C244.41 260.07 244.53 257.39 244.67 257.39Z" fill="#455A64"/>
<path d="M244.67 232.21C244.81 232.21 244.93 235.03 244.93 238.5C244.93 241.98 244.81 244.8 244.67 244.8C244.53 244.8 244.41 241.98 244.41 238.5C244.41 235.03 244.53 232.21 244.67 232.21Z" fill="#455A64"/>
<path d="M244.67 207.03C244.81 207.03 244.93 209.85 244.93 213.32C244.93 216.8 244.81 219.62 244.67 219.62C244.53 219.62 244.41 216.8 244.41 213.32C244.41 209.85 244.53 207.03 244.67 207.03Z" fill="#455A64"/>
<path d="M244.67 181.85C244.81 181.85 244.93 184.67 244.93 188.14C244.93 191.62 244.81 194.44 244.67 194.44C244.53 194.44 244.41 191.62 244.41 188.14C244.41 184.67 244.53 181.85 244.67 181.85Z" fill="#455A64"/>
<path d="M244.67 156.67C244.81 156.67 244.93 159.49 244.93 162.96C244.93 166.44 244.81 169.26 244.67 169.26C244.53 169.26 244.41 166.44 244.41 162.96C244.41 159.49 244.53 156.67 244.67 156.67Z" fill="#455A64"/>
<path d="M244.67 131.49C244.81 131.49 244.93 134.31 244.93 137.78C244.93 141.26 244.81 144.08 244.67 144.08C244.53 144.08 244.41 141.26 244.41 137.78C244.41 134.31 244.53 131.49 244.67 131.49Z" fill="#455A64"/>
<path d="M244.67 106.31C244.81 106.31 244.93 109.13 244.93 112.6C244.93 116.08 244.81 118.9 244.67 118.9C244.53 118.9 244.41 116.08 244.41 112.6C244.41 109.13 244.53 106.31 244.67 106.31Z" fill="#455A64"/>
<path d="M250.67 87.72C250.67 87.86 247.98 87.98 244.67 87.98C245.19 87.46 244.81 87.84 244.93 87.72V87.73V87.75V87.79V87.87V88.02V88.32C244.93 88.52 244.93 88.72 244.93 88.92C244.92 89.3 244.92 89.68 244.91 90.05C244.89 90.71 244.87 91.34 244.85 91.96C244.8 93.05 244.74 93.72 244.67 93.72C244.6 93.72 244.53 93.05 244.49 91.96C244.47 91.34 244.45 90.71 244.43 90.05C244.43 89.68 244.42 89.31 244.41 88.92C244.41 88.72 244.41 88.53 244.41 88.32V88.02V87.87V87.79V87.75V87.73V87.72C244.53 87.6 244.15 87.98 244.67 87.46C247.98 87.46 250.67 87.58 250.67 87.72Z" fill="#455A64"/>
<path d="M275.85 87.72C275.85 87.86 273.03 87.98 269.56 87.98C266.08 87.98 263.26 87.86 263.26 87.72C263.26 87.58 266.08 87.46 269.56 87.46C273.03 87.46 275.85 87.58 275.85 87.72Z" fill="#455A64"/>
<path d="M301.03 87.72C301.03 87.86 298.21 87.98 294.74 87.98C291.26 87.98 288.44 87.86 288.44 87.72C288.44 87.58 291.26 87.46 294.74 87.46C298.21 87.46 301.03 87.58 301.03 87.72Z" fill="#455A64"/>
<path d="M326.21 87.72C326.21 87.86 323.39 87.98 319.92 87.98C316.44 87.98 313.62 87.86 313.62 87.72C313.62 87.58 316.44 87.46 319.92 87.46C323.39 87.46 326.21 87.58 326.21 87.72Z" fill="#455A64"/>
<path d="M351.39 87.72C351.39 87.86 348.57 87.98 345.1 87.98C341.62 87.98 338.8 87.86 338.8 87.72C338.8 87.58 341.62 87.46 345.1 87.46C348.57 87.46 351.39 87.58 351.39 87.72Z" fill="#455A64"/>
<path d="M376.57 87.72C376.57 87.86 373.75 87.98 370.28 87.98C366.8 87.98 363.98 87.86 363.98 87.72C363.98 87.58 366.8 87.46 370.28 87.46C373.75 87.46 376.57 87.58 376.57 87.72Z" fill="#455A64"/>
<path d="M401.74 87.72C401.74 87.86 398.92 87.98 395.45 87.98C391.97 87.98 389.15 87.86 389.15 87.72C389.15 87.58 391.97 87.46 395.45 87.46C398.93 87.46 401.74 87.58 401.74 87.72Z" fill="#455A64"/>
<path d="M420.33 93.72C420.19 93.72 420.07 91.03 420.07 87.72C420.59 88.24 420.21 87.86 420.33 87.98H420.32H420.3H420.26H420.18H420.03H419.73C419.53 87.98 419.33 87.98 419.13 87.98C418.75 87.97 418.37 87.97 418 87.96C417.34 87.94 416.71 87.92 416.09 87.9C415 87.85 414.33 87.79 414.33 87.72C414.33 87.65 415 87.58 416.09 87.54C416.71 87.52 417.34 87.5 418 87.48C418.37 87.48 418.74 87.47 419.13 87.46C419.33 87.46 419.53 87.46 419.73 87.46H420.03H420.18H420.26H420.3H420.32H420.33C420.45 87.58 420.07 87.2 420.59 87.72C420.59 91.03 420.48 93.72 420.33 93.72Z" fill="#455A64"/>
<path d="M420.33 118.9C420.19 118.9 420.07 116.08 420.07 112.61C420.07 109.13 420.19 106.31 420.33 106.31C420.47 106.31 420.59 109.13 420.59 112.61C420.59 116.08 420.48 118.9 420.33 118.9Z" fill="#455A64"/>
<path d="M420.33 144.08C420.19 144.08 420.07 141.26 420.07 137.79C420.07 134.31 420.19 131.49 420.33 131.49C420.47 131.49 420.59 134.31 420.59 137.79C420.59 141.26 420.48 144.08 420.33 144.08Z" fill="#455A64"/>
<path d="M420.33 169.26C420.19 169.26 420.07 166.44 420.07 162.97C420.07 159.49 420.19 156.67 420.33 156.67C420.47 156.67 420.59 159.49 420.59 162.97C420.59 166.44 420.48 169.26 420.33 169.26Z" fill="#455A64"/>
<path d="M420.33 194.44C420.19 194.44 420.07 191.62 420.07 188.15C420.07 184.67 420.19 181.85 420.33 181.85C420.47 181.85 420.59 184.67 420.59 188.15C420.59 191.62 420.48 194.44 420.33 194.44Z" fill="#455A64"/>
<path d="M420.33 219.62C420.19 219.62 420.07 216.8 420.07 213.33C420.07 209.85 420.19 207.03 420.33 207.03C420.47 207.03 420.59 209.85 420.59 213.33C420.59 216.8 420.48 219.62 420.33 219.62Z" fill="#455A64"/>
<path d="M420.33 244.8C420.19 244.8 420.07 241.98 420.07 238.51C420.07 235.03 420.19 232.21 420.33 232.21C420.47 232.21 420.59 235.03 420.59 238.51C420.59 241.98 420.48 244.8 420.33 244.8Z" fill="#455A64"/>
<path d="M323.94 141.73C323.94 141.73 323.58 141.75 322.92 141.6C322.26 141.46 321.28 141.07 320.35 140.14C319.44 139.25 318.56 137.7 318.75 135.8C318.85 134.86 319.29 133.9 320.02 133.12C320.75 132.35 321.79 131.73 323.04 131.7L322.84 131.89C322.82 130.53 322.89 128.93 323.89 127.62C324.38 126.98 325.12 126.51 325.94 126.3C326.76 126.09 327.62 126.09 328.48 126.27L328.2 126.52C328.02 124.74 328.62 122.74 330.15 121.48C330.89 120.84 331.79 120.39 332.74 120.12L333.46 119.92L334.2 119.8C334.69 119.7 335.19 119.67 335.7 119.65C337.7 119.57 339.88 119.78 341.74 120.95C342.65 121.55 343.41 122.39 343.93 123.36C344.46 124.34 344.74 125.43 344.85 126.54C344.89 127.02 344.91 127.5 344.87 127.99L344.6 127.7C346.58 127.61 348.62 128.08 350.18 129.26C351.75 130.42 352.78 132.09 353.46 133.77C353.82 134.59 354.06 135.55 353.97 136.46C353.9 137.38 353.58 138.25 353.1 138.98C352.13 140.47 350.51 141.39 348.89 141.58H348.88H348.87C341.45 141.65 335.23 141.71 330.82 141.75C328.67 141.75 326.96 141.76 325.75 141.76C325.19 141.75 324.75 141.75 324.41 141.75C324.1 141.75 323.94 141.74 323.94 141.73C323.94 141.72 324.1 141.7 324.4 141.69C324.74 141.68 325.18 141.66 325.74 141.64C326.96 141.61 328.67 141.56 330.82 141.5C335.23 141.41 341.45 141.29 348.86 141.14H348.84C350.34 140.95 351.83 140.1 352.7 138.73C353.61 137.37 353.78 135.56 353 133.97C352.34 132.35 351.34 130.77 349.87 129.69C348.41 128.59 346.51 128.14 344.62 128.23L344.32 128.24L344.35 127.94C344.39 127.51 344.37 127.05 344.33 126.6C344.16 124.5 343.15 122.5 341.45 121.4C339.73 120.32 337.65 120.09 335.71 120.17C333.78 120.27 331.82 120.67 330.45 121.86C329.05 122.99 328.48 124.86 328.63 126.47L328.66 126.79L328.35 126.72C326.81 126.37 325.08 126.72 324.2 127.89C323.29 129.04 323.18 130.57 323.2 131.89V132.08H323C321.93 132.1 320.92 132.65 320.24 133.36C319.55 134.08 319.13 134.97 319.02 135.84C318.81 137.61 319.61 139.11 320.47 140C321.34 140.92 322.28 141.33 322.92 141.5C323.58 141.68 323.94 141.7 323.94 141.73Z" fill="#263238"/>
<path d="M340.84 135.7C340.73 135.79 338.63 133.61 336.11 130.8L336.49 130.81C336.46 130.84 336.43 130.87 336.4 130.91C333.72 133.66 331.47 135.81 331.37 135.71C331.27 135.61 333.35 133.3 336.03 130.55C336.06 130.52 336.09 130.48 336.12 130.45L336.31 130.25L336.5 130.46C339.01 133.26 340.95 135.6 340.84 135.7Z" fill="#263238"/>
<path d="M336.3 147.38C336.16 147.38 336.04 143.63 336.04 139C336.04 134.37 336.16 130.62 336.3 130.62C336.44 130.62 336.56 134.37 336.56 139C336.56 143.63 336.45 147.38 336.3 147.38Z" fill="#263238"/>
<path d="M294.55 164.97H289.97L289.02 167.12H287.75L291.65 158.5H292.87L296.79 167.12H295.5L294.55 164.97ZM294.12 163.98L292.26 159.76L290.4 163.98H294.12Z" fill="#263238"/>
<path d="M303.99 157.99V167.13H302.86V166.1C302.33 166.84 301.49 167.21 300.53 167.21C298.62 167.21 297.23 165.87 297.23 163.87C297.23 161.87 298.62 160.55 300.53 160.55C301.45 160.55 302.27 160.89 302.81 161.6V158H303.99V157.99ZM302.82 163.86C302.82 162.47 301.87 161.57 300.63 161.57C299.37 161.57 298.43 162.47 298.43 163.86C298.43 165.25 299.38 166.16 300.63 166.16C301.87 166.16 302.82 165.25 302.82 163.86Z" fill="#263238"/>
<path d="M312.39 157.99V167.13H311.26V166.1C310.73 166.84 309.89 167.21 308.93 167.21C307.02 167.21 305.63 165.87 305.63 163.87C305.63 161.87 307.02 160.55 308.93 160.55C309.85 160.55 310.67 160.89 311.21 161.6V158H312.39V157.99ZM311.22 163.86C311.22 162.47 310.27 161.57 309.03 161.57C307.77 161.57 306.83 162.47 306.83 163.86C306.83 165.25 307.78 166.16 309.03 166.16C310.27 166.16 311.22 165.25 311.22 163.86Z" fill="#263238"/>
<path d="M317.73 158.58C317.73 158.15 318.07 157.8 318.53 157.8C318.99 157.8 319.33 158.13 319.33 158.55C319.33 158.99 319 159.34 318.53 159.34C318.07 159.34 317.73 159.01 317.73 158.58ZM317.94 160.6H319.12V167.13H317.94V160.6Z" fill="#263238"/>
<path d="M325.04 166.74C324.68 167.05 324.14 167.2 323.61 167.2C322.29 167.2 321.54 166.47 321.54 165.16V161.58H320.43V160.61H321.54V159.18H322.72V160.61H324.59V161.58H322.72V165.11C322.72 165.81 323.09 166.21 323.74 166.21C324.08 166.21 324.42 166.1 324.66 165.9L325.04 166.74Z" fill="#263238"/>
<path d="M332.12 164.25H326.82C326.97 165.4 327.89 166.16 329.18 166.16C329.94 166.16 330.58 165.9 331.06 165.37L331.71 166.13C331.12 166.82 330.22 167.19 329.14 167.19C327.03 167.19 325.63 165.8 325.63 163.85C325.63 161.92 327.02 160.53 328.91 160.53C330.79 160.53 332.14 161.88 332.14 163.89C332.15 163.99 332.13 164.14 332.12 164.25ZM326.83 163.4H331.02C330.9 162.3 330.07 161.53 328.93 161.53C327.79 161.53 326.95 162.3 326.83 163.4Z" fill="#263238"/>
<path d="M344.62 163.37V167.13H343.44V163.51C343.44 162.23 342.82 161.6 341.75 161.6C340.57 161.6 339.79 162.35 339.79 163.77V167.13H338.61V163.51C338.61 162.23 337.99 161.6 336.92 161.6C335.74 161.6 334.96 162.35 334.96 163.77V167.13H333.78V160.6H334.91V161.57C335.38 160.91 336.18 160.54 337.16 160.54C338.16 160.54 339 160.93 339.43 161.75C339.92 161.01 340.83 160.54 341.94 160.54C343.53 160.53 344.62 161.45 344.62 163.37Z" fill="#263238"/>
<path d="M349.9 158.58C349.9 158.15 350.24 157.8 350.7 157.8C351.16 157.8 351.5 158.13 351.5 158.55C351.5 158.99 351.17 159.34 350.7 159.34C350.24 159.34 349.9 159.01 349.9 158.58ZM350.11 160.6H351.29V167.13H350.11V160.6Z" fill="#263238"/>
<path d="M364.38 163.37V167.13H363.2V163.51C363.2 162.23 362.58 161.6 361.51 161.6C360.33 161.6 359.55 162.35 359.55 163.77V167.13H358.37V163.51C358.37 162.23 357.75 161.6 356.68 161.6C355.5 161.6 354.72 162.35 354.72 163.77V167.13H353.54V160.6H354.67V161.57C355.14 160.91 355.94 160.54 356.92 160.54C357.92 160.54 358.75 160.93 359.19 161.75C359.68 161.01 360.59 160.54 361.7 160.54C363.29 160.53 364.38 161.45 364.38 163.37Z" fill="#263238"/>
<path d="M371.73 163.18V167.12H370.61V166.26C370.22 166.85 369.49 167.2 368.47 167.2C366.99 167.2 366.06 166.41 366.06 165.28C366.06 164.23 366.74 163.37 368.68 163.37H370.55V163.14C370.55 162.14 369.97 161.56 368.8 161.56C368.02 161.56 367.24 161.83 366.73 162.26L366.24 161.37C366.92 160.83 367.89 160.53 368.94 160.53C370.72 160.53 371.73 161.4 371.73 163.18ZM370.55 165.13V164.22H368.73C367.56 164.22 367.23 164.68 367.23 165.23C367.23 165.88 367.77 166.29 368.67 166.29C369.55 166.29 370.25 165.88 370.55 165.13Z" fill="#263238"/>
<path d="M380.2 160.6V166.24C380.2 168.54 379.03 169.59 376.81 169.59C375.62 169.59 374.41 169.26 373.69 168.62L374.26 167.71C374.86 168.23 375.81 168.56 376.77 168.56C378.31 168.56 379.01 167.85 379.01 166.37V165.85C378.44 166.53 377.59 166.86 376.66 166.86C374.78 166.86 373.35 165.58 373.35 163.7C373.35 161.82 374.78 160.55 376.66 160.55C377.63 160.55 378.52 160.91 379.07 161.62V160.61H380.2V160.6ZM379.04 163.69C379.04 162.42 378.1 161.57 376.8 161.57C375.48 161.57 374.55 162.42 374.55 163.69C374.55 164.95 375.49 165.82 376.8 165.82C378.1 165.82 379.04 164.94 379.04 163.69Z" fill="#263238"/>
<path d="M388.32 164.25H383.03C383.18 165.4 384.1 166.16 385.39 166.16C386.15 166.16 386.79 165.9 387.27 165.37L387.92 166.13C387.33 166.82 386.43 167.19 385.35 167.19C383.24 167.19 381.84 165.8 381.84 163.85C381.84 161.92 383.23 160.53 385.12 160.53C387 160.53 388.35 161.88 388.35 163.89C388.35 163.99 388.33 164.14 388.32 164.25ZM383.03 163.4H387.22C387.1 162.3 386.27 161.53 385.13 161.53C383.99 161.53 383.15 162.3 383.03 163.4Z" fill="#263238"/>
<path d="M332.78 212.76H276.42C274.48 212.76 272.9 211.18 272.9 209.24C272.9 207.3 274.48 205.72 276.42 205.72H332.78C334.72 205.72 336.3 207.3 336.3 209.24C336.3 211.19 334.73 212.76 332.78 212.76Z" fill="#2A9D8F"/>
<path d="M319.76 220.67V224.41H319.12V223.84C318.84 224.23 318.38 224.45 317.85 224.45C316.88 224.45 316.24 223.92 316.24 222.82V220.67H316.92V222.75C316.92 223.48 317.29 223.85 317.93 223.85C318.64 223.85 319.09 223.41 319.09 222.61V220.67H319.76Z" fill="#263238"/>
<path d="M324.94 222.54C324.94 223.69 324.14 224.45 323.05 224.45C322.52 224.45 322.05 224.25 321.74 223.84V225.78H321.06V220.67H321.71V221.26C322.01 220.84 322.49 220.63 323.04 220.63C324.14 220.64 324.94 221.4 324.94 222.54ZM324.25 222.54C324.25 221.75 323.71 221.23 322.99 221.23C322.28 221.23 321.73 221.75 321.73 222.54C321.73 223.34 322.27 223.86 322.99 223.86C323.71 223.87 324.25 223.34 324.25 222.54Z" fill="#263238"/>
<path d="M325.88 219.17H326.56V224.41H325.88V219.17Z" fill="#263238"/>
<path d="M327.51 222.54C327.51 221.42 328.34 220.63 329.46 220.63C330.58 220.63 331.4 221.42 331.4 222.54C331.4 223.66 330.58 224.45 329.46 224.45C328.33 224.46 327.51 223.66 327.51 222.54ZM330.71 222.54C330.71 221.74 330.17 221.23 329.45 221.23C328.73 221.23 328.19 221.75 328.19 222.54C328.19 223.34 328.73 223.86 329.45 223.86C330.17 223.86 330.71 223.34 330.71 222.54Z" fill="#263238"/>
<path d="M335.27 222.16V224.42H334.63V223.93C334.4 224.27 333.99 224.47 333.4 224.47C332.55 224.47 332.02 224.02 332.02 223.37C332.02 222.77 332.41 222.28 333.52 222.28H334.59V222.15C334.59 221.58 334.26 221.25 333.59 221.25C333.14 221.25 332.69 221.41 332.4 221.65L332.12 221.14C332.51 220.83 333.07 220.66 333.67 220.66C334.7 220.64 335.27 221.13 335.27 222.16ZM334.6 223.27V222.75H333.55C332.88 222.75 332.69 223.01 332.69 223.33C332.69 223.7 333 223.94 333.52 223.94C334.02 223.94 334.43 223.7 334.6 223.27Z" fill="#263238"/>
<path d="M340.09 219.17V224.41H339.44V223.82C339.14 224.24 338.66 224.46 338.1 224.46C337.01 224.46 336.21 223.69 336.21 222.55C336.21 221.41 337.01 220.64 338.1 220.64C338.63 220.64 339.1 220.84 339.41 221.24V219.18H340.09V219.17ZM339.42 222.54C339.42 221.74 338.88 221.23 338.16 221.23C337.44 221.23 336.9 221.75 336.9 222.54C336.9 223.34 337.44 223.86 338.16 223.86C338.87 223.87 339.42 223.34 339.42 222.54Z" fill="#263238"/>
<path d="M341.26 219.51C341.26 219.26 341.46 219.07 341.72 219.07C341.98 219.07 342.18 219.26 342.18 219.5C342.18 219.75 341.99 219.95 341.72 219.95C341.46 219.95 341.26 219.76 341.26 219.51ZM341.38 220.67H342.06V224.41H341.38V220.67Z" fill="#263238"/>
<path d="M346.9 222.26V224.41H346.22V222.33C346.22 221.6 345.85 221.24 345.21 221.24C344.49 221.24 344.02 221.67 344.02 222.48V224.41H343.34V220.67H344V221.24C344.28 220.86 344.76 220.64 345.35 220.64C346.26 220.64 346.9 221.16 346.9 222.26Z" fill="#263238"/>
<path d="M351.77 220.67V223.91C351.77 225.23 351.1 225.83 349.83 225.83C349.14 225.83 348.45 225.64 348.04 225.27L348.36 224.75C348.71 225.05 349.25 225.24 349.8 225.24C350.68 225.24 351.09 224.83 351.09 223.98V223.68C350.76 224.07 350.28 224.26 349.74 224.26C348.66 224.26 347.84 223.52 347.84 222.44C347.84 221.36 348.66 220.63 349.74 220.63C350.3 220.63 350.81 220.83 351.12 221.24V220.66H351.77V220.67ZM351.1 222.45C351.1 221.72 350.56 221.23 349.81 221.23C349.05 221.23 348.52 221.72 348.52 222.45C348.52 223.17 349.06 223.67 349.81 223.67C350.57 223.67 351.1 223.17 351.1 222.45Z" fill="#263238"/>
<path d="M352.75 223.97C352.75 223.69 352.97 223.49 353.23 223.49C353.48 223.49 353.7 223.69 353.7 223.97C353.7 224.25 353.49 224.46 353.23 224.46C352.96 224.46 352.75 224.25 352.75 223.97Z" fill="#263238"/>
<path d="M354.35 223.97C354.35 223.69 354.57 223.49 354.83 223.49C355.08 223.49 355.3 223.69 355.3 223.97C355.3 224.25 355.09 224.46 354.83 224.46C354.57 224.46 354.35 224.25 354.35 223.97Z" fill="#263238"/>
<path d="M355.96 223.97C355.96 223.69 356.18 223.49 356.44 223.49C356.69 223.49 356.91 223.69 356.91 223.97C356.91 224.25 356.7 224.46 356.44 224.46C356.17 224.46 355.96 224.25 355.96 223.97Z" fill="#263238"/>
<path d="M331.99 198.63C331.99 199.82 331.15 200.77 329.39 200.77C328.42 200.77 327.45 200.46 326.86 199.94L327.31 199.16C327.77 199.59 328.54 199.9 329.37 199.9C330.41 199.9 331 199.42 331 198.67C331 197.89 330.51 197.41 328.92 197.41H327.36L327.72 193.81H331.6V194.66H328.54L328.35 196.55H329.12C331.19 196.55 331.99 197.41 331.99 198.63Z" fill="#2A9D8F"/>
<path d="M332.81 197.25C332.81 195.01 334.01 193.73 335.62 193.73C337.22 193.73 338.42 195.01 338.42 197.25C338.42 199.49 337.22 200.77 335.62 200.77C334.01 200.77 332.81 199.49 332.81 197.25ZM337.44 197.25C337.44 195.49 336.69 194.61 335.62 194.61C334.54 194.61 333.79 195.49 333.79 197.25C333.79 199.01 334.54 199.89 335.62 199.89C336.69 199.9 337.44 199.01 337.44 197.25Z" fill="#2A9D8F"/>
<path d="M339.25 195.63C339.25 194.51 339.9 193.75 340.85 193.75C341.8 193.75 342.44 194.5 342.44 195.63C342.44 196.76 341.8 197.51 340.85 197.51C339.9 197.51 339.25 196.75 339.25 195.63ZM341.82 195.63C341.82 194.8 341.46 194.31 340.86 194.31C340.27 194.31 339.9 194.81 339.9 195.63C339.9 196.45 340.27 196.95 340.86 196.95C341.45 196.95 341.82 196.46 341.82 195.63ZM345 193.81H345.76L341.06 200.69H340.3L345 193.81ZM343.62 198.87C343.62 197.75 344.26 196.99 345.21 196.99C346.16 196.99 346.81 197.75 346.81 198.87C346.81 199.99 346.16 200.75 345.21 200.75C344.25 200.75 343.62 199.99 343.62 198.87ZM346.17 198.87C346.17 198.05 345.8 197.55 345.21 197.55C344.61 197.55 344.25 198.04 344.25 198.87C344.25 199.7 344.61 200.19 345.21 200.19C345.8 200.19 346.17 199.69 346.17 198.87Z" fill="#2A9D8F"/>
<path d="M391.49 212.76C391.49 212.74 391.71 212.76 392.13 212.67C392.54 212.59 393.18 212.38 393.8 211.82C394.4 211.27 395 210.31 394.92 209.09C394.9 207.9 394.06 206.49 392.55 206C391.81 205.75 390.96 205.86 390.07 205.84C389.18 205.84 388.25 205.85 387.28 205.85C385.33 205.86 383.22 205.86 380.95 205.87C376.4 205.88 371.23 205.89 365.51 205.91C342.62 205.93 311.02 205.96 276.13 205.99C275.12 205.99 274.12 206.48 273.52 207.29C272.9 208.09 272.72 209.18 272.99 210.14C273.25 211.1 274 211.92 274.92 212.28C275.39 212.47 275.86 212.52 276.39 212.51H277.99C282.24 212.51 286.43 212.51 290.54 212.51C298.77 212.52 306.71 212.52 314.27 212.53C329.39 212.55 343.01 212.57 354.45 212.59C365.88 212.62 375.13 212.65 381.54 212.67C384.73 212.69 387.2 212.71 388.91 212.72C389.74 212.73 390.38 212.74 390.83 212.75C391.27 212.75 391.49 212.76 391.49 212.76C391.49 212.76 391.27 212.78 390.84 212.79C390.39 212.8 389.75 212.8 388.92 212.82C387.22 212.83 384.74 212.85 381.55 212.87C375.14 212.89 365.88 212.92 354.46 212.95C343.02 212.97 329.4 212.98 314.28 213.01C306.72 213.01 298.78 213.02 290.55 213.03C286.43 213.03 282.25 213.03 278 213.03H276.4C275.87 213.04 275.26 212.98 274.73 212.76C273.66 212.34 272.8 211.4 272.49 210.28C272.17 209.17 272.39 207.9 273.11 206.98C273.8 206.04 274.96 205.47 276.13 205.47C311.03 205.5 342.62 205.53 365.51 205.55C371.23 205.56 376.4 205.58 380.95 205.59C383.22 205.6 385.33 205.6 387.28 205.61C388.25 205.61 389.18 205.62 390.07 205.62C390.95 205.65 391.82 205.54 392.61 205.81C394.2 206.34 395.06 207.84 395.07 209.09C395.13 210.37 394.49 211.36 393.86 211.91C393.21 212.47 392.56 212.67 392.13 212.73C391.71 212.8 391.49 212.76 391.49 212.76Z" fill="#263238"/>
</g>
<defs>
<clipPath id="clip0">
<rect width="675.18" height="384.82" fill="white"/>
</clipPath>
</defs>
</svg>
